<svg width="40" height="40" viewBox="0 0 30 30" fill="none" xmlns="http://www.w3.org/2000/svg">
    <path fill-rule="evenodd" clip-rule="evenodd"
        d="M23.3435 29.9842L6.68564 30C3.02091 30.0033 0.0199923 27.0082 0.0158278 23.3435L2.77671e-06 6.68564C-0.0033288 3.02091 2.99176 0.0199923 6.65649 0.0158278L23.3144 2.77671e-06C26.9791 -0.0033288 29.98 2.99176 29.9842 6.65649L30 23.3144C30.0042 26.9799 27.0082 29.9808 23.3435 29.9842ZM4.09616 8.99422C4.46092 9.18654 7.52825 10.8559 10.1334 12.2738C12.0607 13.3227 13.735 14.234 13.8748 14.3076C14.2036 14.4806 14.5383 14.5614 15.0575 14.5614C15.5767 14.5614 15.9113 14.4806 16.2401 14.3076C16.38 14.234 18.0544 13.3227 19.9818 12.2737L19.9819 12.2736C22.5869 10.8558 25.654 9.18653 26.0188 8.99422C26.2553 8.87306 26.6534 8.65384 26.7399 8.40577C26.8899 7.96731 26.7284 7.80001 26.088 7.80001H15.0575H4.02693C3.38656 7.80001 3.22503 7.97308 3.37502 8.40577C3.46156 8.65961 3.85963 8.87306 4.09616 8.99422ZM24.0022 10.9499C25.2987 10.0572 26.3043 9.36464 26.5207 9.25382C27.0038 9.00956 27.0017 9.2607 26.9997 9.49307C26.9996 9.50766 26.9995 9.52219 26.9995 9.53651V21.3632C26.9995 21.894 26.3245 22.5689 25.7591 22.5689H15.0574H4.35573C3.79036 22.5689 2.99999 21.8997 2.99999 21.3632V9.53651C2.99999 9.29998 3.02884 8.99421 3.53652 9.25382C3.75932 9.36794 4.82921 10.0988 6.19237 11.03C7.72365 12.0761 9.62499 13.375 11.1114 14.3364L6.37492 19.6728C6.25954 19.7882 6.20762 19.9325 6.27685 19.9959C6.34608 20.0651 6.50184 20.0305 6.61723 19.9151L12.3056 15.1152C13.1652 15.6691 13.7652 16.0498 13.8748 16.1075C14.319 16.3325 14.6305 16.3614 15.0574 16.3614C15.4844 16.3614 15.7959 16.3325 16.2401 16.1075C16.3439 16.0498 16.9497 15.6691 17.8093 15.1152L23.4976 19.9151C23.6188 20.0248 23.7688 20.0594 23.838 19.9959C23.9015 19.9267 23.8496 19.7882 23.7342 19.6728L18.992 14.3364C20.5165 13.3503 22.4641 12.0092 24.0022 10.9499Z"
        fill="#fff" />
</svg>