<svg width="40" height="40" viewBox="0 0 30 30" fill="none" xmlns="http://www.w3.org/2000/svg">
    <path fill-rule="evenodd" clip-rule="evenodd"
        d="M6.68564 30L23.3435 29.9842C27.0082 29.9808 30.0042 26.9799 30 23.3144L29.9842 6.65649C29.98 2.99176 26.9791 -0.0033288 23.3144 2.77671e-06L6.65649 0.0158278C2.99176 0.0199923 -0.0033288 3.02091 2.77671e-06 6.68564L0.0158278 23.3435C0.0199923 27.0082 3.02091 30.0033 6.68564 30ZM9.17003 15.0004C9.17003 18.2154 11.7861 20.8307 15.0003 20.8307C18.2144 20.8307 20.8305 18.2154 20.8305 15.0004C20.8305 11.7854 18.2144 9.17016 15.0003 9.17016C11.7861 9.17016 9.17003 11.7854 9.17003 15.0004ZM10.8358 15.0004C10.8358 12.7041 12.704 10.8359 15.0003 10.8359C17.2966 10.8359 19.1648 12.7041 19.1648 15.0004C19.1648 17.2967 17.2966 19.1649 15.0003 19.1649C12.704 19.1649 10.8358 17.2967 10.8358 15.0004ZM21.2475 10.003C21.9375 10.003 22.4969 9.4437 22.4969 8.75371C22.4969 8.06372 21.9375 7.50437 21.2475 7.50437C20.5575 7.50437 19.9982 8.06372 19.9982 8.75371C19.9982 9.4437 20.5575 10.003 21.2475 10.003ZM10.0025 25.828H19.9972C23.2114 25.828 25.8275 23.2127 25.8275 19.9978V10.003C25.8275 6.78808 23.2114 4.17279 19.9972 4.17279H10.0025C6.78836 4.17279 4.17224 6.78808 4.17224 10.003V19.9978C4.17224 23.2127 6.78836 25.828 10.0025 25.828ZM5.83803 10.003C5.83803 7.70676 7.70621 5.83858 10.0025 5.83858H19.9972C22.2935 5.83858 24.1617 7.70676 24.1617 10.003V19.9978C24.1617 22.2941 22.2935 24.1622 19.9972 24.1622H10.0025C7.70621 24.1622 5.83803 22.2941 5.83803 19.9978V10.003Z"
        fill="white" />
</svg>