<svg width="1000" height="1000" viewBox="0 0 1000 1000" fill="none" xmlns="http://www.w3.org/2000/svg">
    <rect width="1000" height="1000" rx="500" fill="black" />
    <path fill-rule="evenodd" clip-rule="evenodd"
        d="M796 494.498C796 646.099 673.103 768.995 521.502 768.995C516.206 768.995 510.945 768.845 505.722 768.549C504.362 768.842 502.95 768.995 501.502 768.995H411.703V999.573H204V748.995V657.366V509C204 349.39 333.39 220 493 220H501.502C502.95 220 504.362 220.154 505.722 220.446C510.944 220.15 516.206 220 521.502 220C673.103 220 796 342.897 796 494.498ZM464.773 457.44C464.773 517.323 432.205 565.867 392.031 565.867C351.857 565.867 319.289 517.323 319.289 457.44C319.289 397.558 351.857 349.014 392.031 349.014C432.205 349.014 464.773 397.558 464.773 457.44ZM608.884 565.867C649.058 565.867 681.626 517.323 681.626 457.44C681.626 397.558 649.058 349.014 608.884 349.014C568.71 349.014 536.142 397.558 536.142 457.44C536.142 517.323 568.71 565.867 608.884 565.867Z"
        fill="white" />
</svg>