<svg width="40" height="40" viewBox="0 0 30 30" fill="none" xmlns="http://www.w3.org/2000/svg">
    <path fill-rule="evenodd" clip-rule="evenodd"
        d="M6.68564 30L23.3435 29.9842C27.0082 29.9808 30.0042 26.9799 30 23.3144L29.9842 6.65649C29.98 2.99176 26.9791 -0.0033288 23.3144 2.77671e-06L6.65649 0.0158278C2.99176 0.0199923 -0.0033288 3.02091 2.77671e-06 6.68564L0.0158278 23.3435C0.0199923 27.0082 3.02091 30.0033 6.68564 30ZM2.99999 15.0992C2.99999 8.40832 8.36874 2.99999 15.0099 2.99999C21.6312 2.99999 27.0196 8.40832 26.9999 15.0992C26.9999 20.4475 23.56 24.9745 18.7879 26.5773C18.1915 26.6976 17.9727 26.3168 17.9727 25.9962C17.9727 25.8633 17.9749 25.631 17.9778 25.3207C17.9836 24.696 17.9924 23.755 17.9924 22.6711C17.9924 21.5292 17.6148 20.8081 17.1772 20.4276C19.8617 20.1269 22.6652 19.1055 22.6652 14.458C22.6652 13.1359 22.2079 12.0543 21.4323 11.213C21.5515 10.9126 21.9695 9.67043 21.3131 8.00786C21.3131 8.00786 20.299 7.68729 18.0123 9.24981C17.0577 8.98947 16.024 8.8491 15.0099 8.8491C13.9958 8.85023 12.9862 8.98496 12.0073 9.24981C9.72082 7.68729 8.70676 8.00786 8.70676 8.00786C8.05039 9.67043 8.46806 10.9126 8.58729 11.213C7.8316 12.0543 7.35468 13.1359 7.35468 14.458C7.35468 19.1055 10.1582 20.1471 12.8227 20.4276C12.4847 20.728 12.1664 21.2688 12.0671 22.0501C11.3711 22.3707 9.64117 22.8913 8.56762 21.0486C8.56762 21.0486 7.93116 19.8868 6.71822 19.8066C6.71822 19.8066 5.5451 19.8066 6.63857 20.5478C6.63857 20.5478 7.43409 20.9082 7.97098 22.3104C7.97098 22.3104 8.66669 24.474 12.0076 23.7527C12.0076 24.4078 12.016 25.0457 12.0218 25.4872C12.0249 25.7208 12.0272 25.8994 12.0272 25.9964C12.0272 26.3168 11.8087 26.6976 11.212 26.5771C6.43994 24.9748 2.99999 20.4475 2.99999 15.0992Z"
        fill="white" />
</svg>