<svg width="2000" height="2000" viewBox="0 0 2000 2000" fill="none" xmlns="http://www.w3.org/2000/svg">
    <rect width="2000" height="2000" rx="1000" fill="black" />
    <mask id="path-2-inside-1_36_2" fill="white">
        <path fill-rule="evenodd" clip-rule="evenodd"
            d="M1273.9 472.734C1295.47 477.013 1314.72 487.512 1332.5 504.687C1369.33 540.26 1393.09 597.441 1400.32 667.891C1401.49 679.221 1401.49 725.354 1400.32 736.487C1394.06 796.347 1377.45 843.573 1349.6 880.671C1343.99 888.14 1328.29 904.274 1321.44 909.598L1316.95 913.093V1221.05V1529H1255.34H1193.74V1401.47V1273.93H1000.27H806.806V1401.47V1529H745.204H683.602L683.435 1230.54L683.268 932.086L677.94 930.832C657.603 926.045 637.079 913.384 623.709 897.376C612.358 883.786 605.447 869.859 600.879 851.368L599.398 845.374L599.198 667.392L599 489.409H617.679C632.013 489.409 636.43 489.603 636.669 490.242C636.84 490.7 637.055 569.892 637.147 666.226L637.275 799.281H683.601V660.011C683.601 566.668 683.8 490.097 684.045 489.853C684.288 489.609 692.83 489.409 703.025 489.409H721.561V659.566V799.281H768.846V659.556V489.388L787.66 489.565L806.474 489.742L806.641 659.733L806.779 799.281H853.874C854.017 769.577 854.091 722.75 854.091 660.406V489.388L872.905 489.565L891.719 489.742V664.228C891.719 806.675 891.555 839.754 890.828 844.375C886.269 873.332 871.181 897.994 847.764 914.756C838.064 921.701 823.453 928.338 812.134 930.943C810.12 931.406 808.097 931.888 807.639 932.014C806.977 932.196 806.806 954.656 806.806 1041.48V1150.72H1000.27H1193.74V1031.91V913.093L1189.24 909.585C1177.52 900.438 1167.43 889.781 1157.85 876.427C1138.33 849.245 1124.28 815.3 1115.84 774.944C1114.51 768.572 1114.16 766.476 1112.14 752.57C1108.17 725.194 1108.03 683.86 1111.82 654.257C1114.22 635.477 1119.31 612.417 1124.81 595.407C1146.65 527.856 1188.31 482.077 1236.36 472.819C1246.2 470.924 1246.92 470.865 1257.34 471.093C1263.44 471.227 1269.16 471.794 1273.9 472.734Z" />
    </mask>
    <path fill-rule="evenodd" clip-rule="evenodd"
        d="M1273.9 472.734C1295.47 477.013 1314.72 487.512 1332.5 504.687C1369.33 540.26 1393.09 597.441 1400.32 667.891C1401.49 679.221 1401.49 725.354 1400.32 736.487C1394.06 796.347 1377.45 843.573 1349.6 880.671C1343.99 888.14 1328.29 904.274 1321.44 909.598L1316.95 913.093V1221.05V1529H1255.34H1193.74V1401.47V1273.93H1000.27H806.806V1401.47V1529H745.204H683.602L683.435 1230.54L683.268 932.086L677.94 930.832C657.603 926.045 637.079 913.384 623.709 897.376C612.358 883.786 605.447 869.859 600.879 851.368L599.398 845.374L599.198 667.392L599 489.409H617.679C632.013 489.409 636.43 489.603 636.669 490.242C636.84 490.7 637.055 569.892 637.147 666.226L637.275 799.281H683.601V660.011C683.601 566.668 683.8 490.097 684.045 489.853C684.288 489.609 692.83 489.409 703.025 489.409H721.561V659.566V799.281H768.846V659.556V489.388L787.66 489.565L806.474 489.742L806.641 659.733L806.779 799.281H853.874C854.017 769.577 854.091 722.75 854.091 660.406V489.388L872.905 489.565L891.719 489.742V664.228C891.719 806.675 891.555 839.754 890.828 844.375C886.269 873.332 871.181 897.994 847.764 914.756C838.064 921.701 823.453 928.338 812.134 930.943C810.12 931.406 808.097 931.888 807.639 932.014C806.977 932.196 806.806 954.656 806.806 1041.48V1150.72H1000.27H1193.74V1031.91V913.093L1189.24 909.585C1177.52 900.438 1167.43 889.781 1157.85 876.427C1138.33 849.245 1124.28 815.3 1115.84 774.944C1114.51 768.572 1114.16 766.476 1112.14 752.57C1108.17 725.194 1108.03 683.86 1111.82 654.257C1114.22 635.477 1119.31 612.417 1124.81 595.407C1146.65 527.856 1188.31 482.077 1236.36 472.819C1246.2 470.924 1246.92 470.865 1257.34 471.093C1263.44 471.227 1269.16 471.794 1273.9 472.734Z"
        fill="white" />
    <path
        d="M1332.5 504.687L1333.2 503.967L1333.2 503.967L1332.5 504.687ZM1273.9 472.734L1273.71 473.715L1273.71 473.715L1273.9 472.734ZM1400.32 667.891L1399.33 667.993L1399.33 667.993L1400.32 667.891ZM1400.32 736.487L1399.33 736.383L1399.33 736.383L1400.32 736.487ZM1349.6 880.671L1350.4 881.271L1350.4 881.271L1349.6 880.671ZM1321.44 909.598L1322.05 910.387L1322.05 910.387L1321.44 909.598ZM1316.95 913.093L1316.33 912.303L1315.95 912.603V913.093H1316.95ZM1316.95 1529V1530H1317.95V1529H1316.95ZM1193.74 1529H1192.74V1530H1193.74V1529ZM1193.74 1273.93H1194.74V1272.93H1193.74V1273.93ZM806.806 1273.93V1272.93H805.806V1273.93H806.806ZM806.806 1529V1530H807.806V1529H806.806ZM683.602 1529L682.602 1529L682.602 1530H683.602V1529ZM683.435 1230.54L682.435 1230.54L683.435 1230.54ZM683.268 932.086L684.268 932.085L684.267 931.294L683.497 931.112L683.268 932.086ZM677.94 930.832L678.169 929.858L678.169 929.858L677.94 930.832ZM623.709 897.376L622.942 898.017L622.942 898.017L623.709 897.376ZM600.879 851.368L601.849 851.128L601.849 851.128L600.879 851.368ZM599.398 845.374L598.398 845.375L598.398 845.496L598.427 845.614L599.398 845.374ZM599.198 667.392L598.198 667.393L598.198 667.393L599.198 667.392ZM599 489.409V488.409H597.999L598 489.41L599 489.409ZM636.669 490.242L637.606 489.892L637.606 489.891L636.669 490.242ZM637.147 666.226L636.147 666.227L636.147 666.227L637.147 666.226ZM637.275 799.281L636.275 799.282L636.276 800.281H637.275V799.281ZM683.601 799.281V800.281H684.601V799.281H683.601ZM684.045 489.853L684.751 490.561L684.753 490.559L684.045 489.853ZM721.561 489.409H722.561V488.409H721.561V489.409ZM721.561 799.281H720.561V800.281H721.561V799.281ZM768.846 799.281V800.281H769.846V799.281H768.846ZM768.846 489.388L768.855 488.388L767.846 488.379V489.388H768.846ZM787.66 489.565L787.669 488.565L787.669 488.565L787.66 489.565ZM806.474 489.742L807.474 489.741L807.473 488.751L806.483 488.742L806.474 489.742ZM806.641 659.733L805.641 659.734L805.641 659.734L806.641 659.733ZM806.779 799.281L805.779 799.282L805.78 800.281H806.779V799.281ZM853.874 799.281V800.281H854.87L854.874 799.286L853.874 799.281ZM854.091 489.388L854.1 488.388L853.091 488.379V489.388H854.091ZM872.905 489.565L872.914 488.565L872.914 488.565L872.905 489.565ZM891.719 489.742H892.719V488.751L891.728 488.742L891.719 489.742ZM890.828 844.375L891.815 844.531L891.815 844.531L890.828 844.375ZM847.764 914.756L847.182 913.943L847.182 913.943L847.764 914.756ZM812.134 930.943L812.359 931.917L812.359 931.917L812.134 930.943ZM807.639 932.014L807.903 932.979L807.904 932.979L807.639 932.014ZM806.806 1150.72H805.806V1151.72H806.806V1150.72ZM1193.74 1150.72V1151.72H1194.74V1150.72H1193.74ZM1193.74 913.093H1194.74V912.604L1194.36 912.304L1193.74 913.093ZM1189.24 909.585L1188.63 910.373L1188.63 910.373L1189.24 909.585ZM1157.85 876.427L1157.03 877.01L1157.03 877.01L1157.85 876.427ZM1115.84 774.944L1114.86 775.149L1114.86 775.149L1115.84 774.944ZM1112.14 752.57L1113.13 752.426L1113.13 752.426L1112.14 752.57ZM1111.82 654.257L1110.82 654.13L1110.82 654.13L1111.82 654.257ZM1124.81 595.407L1123.86 595.1L1123.86 595.1L1124.81 595.407ZM1236.36 472.819L1236.17 471.837L1236.17 471.837L1236.36 472.819ZM1257.34 471.093L1257.36 470.094L1257.36 470.094L1257.34 471.093ZM1333.2 503.967C1315.3 486.677 1295.88 476.074 1274.1 471.753L1273.71 473.715C1295.06 477.952 1314.15 488.348 1331.81 505.406L1333.2 503.967ZM1401.32 667.789C1394.07 597.194 1370.25 539.758 1333.2 503.967L1331.81 505.406C1368.41 540.762 1392.11 597.689 1399.33 667.993L1401.32 667.789ZM1401.32 736.591C1401.9 730.962 1402.19 716.591 1402.2 702.263C1402.2 687.934 1401.91 673.515 1401.32 667.789L1399.33 667.993C1399.9 673.598 1400.2 687.91 1400.2 702.263C1400.19 716.617 1399.9 730.878 1399.33 736.383L1401.32 736.591ZM1350.4 881.271C1378.39 843.991 1395.05 796.579 1401.32 736.591L1399.33 736.383C1393.08 796.116 1376.52 843.154 1348.8 880.071L1350.4 881.271ZM1322.05 910.387C1325.54 907.68 1331.22 902.272 1336.7 896.636C1342.19 890.998 1347.56 885.06 1350.4 881.271L1348.8 880.07C1346.04 883.752 1340.75 889.615 1335.27 895.241C1329.79 900.87 1324.19 906.192 1320.83 908.808L1322.05 910.387ZM1317.56 913.882L1322.05 910.387L1320.83 908.808L1316.33 912.303L1317.56 913.882ZM1317.95 1221.05V913.093H1315.95V1221.05H1317.95ZM1317.95 1529V1221.05H1315.95V1529H1317.95ZM1255.34 1530H1316.95V1528H1255.34V1530ZM1193.74 1530H1255.34V1528H1193.74V1530ZM1192.74 1401.47V1529H1194.74V1401.47H1192.74ZM1192.74 1273.93V1401.47H1194.74V1273.93H1192.74ZM1000.27 1274.93H1193.74V1272.93H1000.27V1274.93ZM806.806 1274.93H1000.27V1272.93H806.806V1274.93ZM807.806 1401.47V1273.93H805.806V1401.47H807.806ZM807.806 1529V1401.47H805.806V1529H807.806ZM745.204 1530H806.806V1528H745.204V1530ZM683.602 1530H745.204V1528H683.602V1530ZM682.435 1230.54L682.602 1529L684.602 1529L684.435 1230.54L682.435 1230.54ZM682.268 932.086L682.435 1230.54L684.435 1230.54L684.268 932.085L682.268 932.086ZM677.711 931.805L683.038 933.059L683.497 931.112L678.169 929.858L677.711 931.805ZM622.942 898.017C636.451 914.191 657.164 926.969 677.711 931.805L678.169 929.858C658.043 925.121 637.708 912.576 624.477 896.735L622.942 898.017ZM599.908 851.608C604.51 870.235 611.486 884.302 622.942 898.017L624.477 896.735C613.23 883.27 606.384 869.483 601.849 851.128L599.908 851.608ZM598.427 845.614L599.908 851.608L601.849 851.128L600.368 845.134L598.427 845.614ZM598.198 667.393L598.398 845.375L600.398 845.373L600.198 667.39L598.198 667.393ZM598 489.41L598.198 667.393L600.198 667.39L600 489.408L598 489.41ZM617.679 488.409H599V490.409H617.679V488.409ZM637.606 489.891C637.412 489.373 636.932 489.167 636.733 489.09C636.465 488.986 636.136 488.913 635.775 488.855C635.043 488.737 633.973 488.651 632.503 488.587C629.552 488.457 624.843 488.409 617.679 488.409V490.409C624.848 490.409 629.515 490.458 632.416 490.585C633.872 490.649 634.846 490.731 635.458 490.829C635.769 490.879 635.937 490.926 636.011 490.955C636.156 491.011 635.867 490.95 635.733 490.592L637.606 489.891ZM638.147 666.225C638.101 618.058 638.025 574.176 637.938 542.278C637.895 526.329 637.849 513.376 637.803 504.38C637.78 499.883 637.757 496.374 637.735 493.974C637.724 492.775 637.713 491.85 637.701 491.218C637.696 490.902 637.69 490.655 637.685 490.481C637.682 490.395 637.679 490.32 637.675 490.261C637.674 490.233 637.671 490.199 637.668 490.165C637.666 490.149 637.663 490.123 637.659 490.093C637.657 490.082 637.644 489.994 637.606 489.892L635.732 490.591C635.695 490.493 635.684 490.41 635.684 490.408C635.68 490.387 635.679 490.371 635.678 490.368C635.678 490.361 635.678 490.363 635.679 490.38C635.681 490.412 635.683 490.466 635.686 490.546C635.691 490.704 635.696 490.94 635.702 491.253C635.713 491.877 635.724 492.795 635.735 493.993C635.757 496.388 635.78 499.894 635.803 504.391C635.849 513.383 635.895 526.335 635.938 542.283C636.025 574.18 636.101 618.061 636.147 666.227L638.147 666.225ZM638.275 799.28L638.147 666.225L636.147 666.227L636.275 799.282L638.275 799.28ZM683.601 798.281H637.275V800.281H683.601V798.281ZM682.601 660.011V799.281H684.601V660.011H682.601ZM683.339 489.145C683.261 489.232 683.161 489.384 683.132 489.445C683.115 489.484 683.09 489.552 683.082 489.58C683.065 489.636 683.057 489.683 683.053 489.705C683.045 489.754 683.04 489.799 683.038 489.828C683.032 489.891 683.027 489.968 683.023 490.049C683.015 490.216 683.007 490.453 683 490.754C682.985 491.357 682.97 492.243 682.956 493.394C682.927 495.696 682.899 499.075 682.872 503.411C682.819 512.084 682.771 524.596 682.731 540.017C682.65 570.859 682.601 613.339 682.601 660.011H684.601C684.601 613.34 684.65 570.862 684.731 540.022C684.771 524.602 684.819 512.092 684.872 503.423C684.899 499.088 684.927 495.715 684.955 493.419C684.97 492.27 684.984 491.394 684.999 490.804C685.007 490.507 685.014 490.289 685.021 490.147C685.024 490.073 685.027 490.032 685.029 490.013C685.03 490.001 685.029 490.015 685.025 490.041C685.023 490.051 685.016 490.089 685.002 490.139C684.994 490.164 684.971 490.229 684.955 490.267C684.926 490.325 684.827 490.476 684.751 490.561L683.339 489.145ZM703.025 488.409C697.922 488.409 693.23 488.459 689.78 488.54C688.056 488.58 686.635 488.628 685.626 488.682C685.124 488.709 684.71 488.738 684.408 488.769C684.26 488.785 684.119 488.803 684 488.826C683.942 488.837 683.866 488.853 683.787 488.878C683.763 488.886 683.532 488.951 683.337 489.147L684.753 490.559C684.644 490.669 684.537 490.723 684.498 490.742C684.45 490.765 684.412 490.778 684.396 490.783C684.365 490.793 684.352 490.794 684.373 490.79C684.41 490.783 684.487 490.772 684.616 490.759C684.867 490.732 685.241 490.706 685.733 490.679C686.712 490.627 688.11 490.579 689.826 490.539C693.257 490.459 697.933 490.409 703.025 490.409V488.409ZM721.561 488.409H703.025V490.409H721.561V488.409ZM722.561 659.566V489.409H720.561V659.566H722.561ZM722.561 799.281V659.566H720.561V799.281H722.561ZM768.846 798.281H721.561V800.281H768.846V798.281ZM767.846 659.556V799.281H769.846V659.556H767.846ZM767.846 489.388V659.556H769.846V489.388H767.846ZM787.669 488.565L768.855 488.388L768.836 490.388L787.65 490.565L787.669 488.565ZM806.483 488.742L787.669 488.565L787.65 490.565L806.464 490.742L806.483 488.742ZM807.641 659.732L807.474 489.741L805.474 489.743L805.641 659.734L807.641 659.732ZM807.779 799.28L807.641 659.732L805.641 659.734L805.779 799.282L807.779 799.28ZM853.874 798.281H806.779V800.281H853.874V798.281ZM853.091 660.406C853.091 722.75 853.017 769.575 852.874 799.276L854.874 799.286C855.017 769.579 855.091 722.751 855.091 660.406H853.091ZM853.091 489.388V660.406H855.091V489.388H853.091ZM872.914 488.565L854.1 488.388L854.082 490.388L872.895 490.565L872.914 488.565ZM891.728 488.742L872.914 488.565L872.895 490.565L891.709 490.742L891.728 488.742ZM892.719 664.228V489.742H890.719V664.228H892.719ZM891.815 844.531C892.01 843.292 892.156 840.277 892.273 834.329C892.391 828.344 892.48 819.318 892.546 805.991C892.678 779.335 892.719 735.451 892.719 664.228H890.719C890.719 735.452 890.678 779.331 890.546 805.981C890.48 819.307 890.391 828.32 890.274 834.289C890.156 840.295 890.008 843.148 889.84 844.22L891.815 844.531ZM848.346 915.569C871.985 898.648 887.216 873.747 891.815 844.531L889.84 844.22C885.322 872.918 870.376 897.34 847.182 913.943L848.346 915.569ZM812.359 931.917C823.81 929.282 838.541 922.589 848.346 915.569L847.182 913.943C837.586 920.813 823.097 927.394 811.91 929.968L812.359 931.917ZM807.904 932.979C808.337 932.86 810.335 932.383 812.359 931.917L811.91 929.968C809.904 930.43 807.857 930.917 807.374 931.05L807.904 932.979ZM807.806 1041.48C807.806 998.069 807.849 970.751 807.974 954.264C808.037 946.019 808.12 940.492 808.229 937.017C808.284 935.276 808.344 934.067 808.41 933.293C808.443 932.902 808.475 932.651 808.503 932.508C808.517 932.431 808.523 932.428 808.51 932.462C808.504 932.478 808.477 932.546 808.417 932.628C808.365 932.698 808.206 932.896 807.903 932.979L807.375 931.05C807.051 931.138 806.871 931.353 806.8 931.451C806.72 931.561 806.673 931.668 806.647 931.734C806.594 931.869 806.561 932.012 806.539 932.131C806.491 932.38 806.451 932.715 806.417 933.124C806.346 933.953 806.285 935.207 806.23 936.954C806.121 940.455 806.037 946.003 805.975 954.249C805.849 970.745 805.806 998.071 805.806 1041.48H807.806ZM807.806 1150.72V1041.48H805.806V1150.72H807.806ZM1000.27 1149.72H806.806V1151.72H1000.27V1149.72ZM1193.74 1149.72H1000.27V1151.72H1193.74V1149.72ZM1192.74 1031.91V1150.72H1194.74V1031.91H1192.74ZM1192.74 913.093V1031.91H1194.74V913.093H1192.74ZM1188.63 910.373L1193.12 913.881L1194.36 912.304L1189.86 908.797L1188.63 910.373ZM1157.03 877.01C1166.67 890.433 1176.82 901.162 1188.63 910.373L1189.86 908.797C1178.22 899.715 1168.19 889.128 1158.66 875.844L1157.03 877.01ZM1114.86 775.149C1123.33 815.611 1137.42 849.692 1157.03 877.01L1158.66 875.844C1139.24 848.799 1125.24 814.99 1116.82 774.739L1114.86 775.149ZM1111.15 752.714C1113.17 766.622 1113.52 768.745 1114.86 775.149L1116.82 774.74C1115.49 768.4 1115.15 766.329 1113.13 752.426L1111.15 752.714ZM1110.82 654.13C1107.03 683.816 1107.16 725.241 1111.15 752.714L1113.13 752.426C1109.17 725.147 1109.03 683.905 1112.81 654.384L1110.82 654.13ZM1123.86 595.1C1118.34 612.172 1113.23 635.293 1110.82 654.13L1112.81 654.384C1115.2 635.662 1120.28 612.663 1125.76 595.715L1123.86 595.1ZM1236.17 471.837C1187.61 481.192 1145.76 527.375 1123.86 595.1L1125.76 595.715C1147.55 528.337 1189.01 482.961 1236.55 473.801L1236.17 471.837ZM1257.36 470.094C1252.17 469.98 1249.33 469.935 1246.55 470.163C1243.77 470.392 1241.08 470.892 1236.17 471.837L1236.55 473.801C1241.48 472.851 1244.07 472.374 1246.72 472.157C1249.37 471.939 1252.1 471.979 1257.32 472.093L1257.36 470.094ZM1274.1 471.753C1269.29 470.799 1263.51 470.228 1257.36 470.094L1257.32 472.093C1263.38 472.226 1269.04 472.789 1273.71 473.715L1274.1 471.753Z"
        fill="black" mask="url(#path-2-inside-1_36_2)" />
</svg>