<svg width="174" height="175" viewBox="0 0 174 175" fill="none" xmlns="http://www.w3.org/2000/svg">
    <path fill-rule="evenodd" clip-rule="evenodd"
        d="M86.9126 174.384C82.7355 174.5 78.6739 174.151 74.4969 173.57C63.241 171.943 52.6818 168.339 42.935 162.411C21.3517 149.392 7.54339 130.444 1.85774 105.568C0.581502 99.9885 0.00134807 94.2926 0.00134807 88.5967C-0.115094 65.8131 7.31153 45.8195 22.3961 28.8477C35.5084 14.2012 51.7538 5.25058 70.8995 1.53112C76.2374 0.484678 81.5752 -0.0965066 86.9126 0.135864C86.9126 8.85412 86.9126 17.4559 86.9126 26.1742C86.6807 26.2906 86.4488 26.4071 86.2165 26.6395C83.0833 28.8477 79.9507 31.173 76.9334 33.6136C70.0875 39.1936 63.5893 45.1219 58.1355 52.2125C50.8254 61.6284 45.9517 71.9738 45.2556 84.1796C44.9073 89.9915 45.6034 95.6874 47.4603 101.151C51.9857 114.752 66.0259 128.817 85.7522 129.165C86.9126 129.165 87.1449 129.398 87.1449 130.676C87.029 136.605 87.029 148.462 87.029 148.462C87.029 148.462 87.029 149.159 87.029 149.508C86.9126 157.761 86.9126 166.014 86.9126 174.384Z"
        fill="#0099FF" />
    <path fill-rule="evenodd" clip-rule="evenodd"
        d="M86.9102 26.0562C86.9102 26.0562 86.9102 8.73611 86.9102 0.0178492C91.6679 -0.0985925 96.3092 0.366663 100.951 1.06378C109.653 2.45902 118.008 5.01613 125.899 9.08441C142.26 17.5703 155.14 29.6597 163.843 46.1662C168.832 55.6981 172.081 65.811 173.358 76.3893C174.866 88.827 173.706 101.149 169.993 113.122C165.699 126.722 158.505 138.695 148.41 148.808C136.11 161.014 121.489 168.918 104.548 172.522C98.7462 173.684 92.8282 174.382 86.9102 174.266C86.9102 165.896 86.9102 157.643 86.9102 149.273C86.9102 148.925 86.9102 148.344 86.9102 148.344C86.9102 148.344 87.2585 148.111 87.3744 147.995C96.4251 141.601 105.012 134.627 112.439 126.257C117.312 120.794 121.489 114.982 124.39 108.239C128.452 98.7076 130.076 88.9435 127.987 78.5976C124.274 59.7663 107.449 45.701 88.0705 45.2363C86.7943 45.2363 86.9102 44.1898 86.9102 44.1898V26.0562Z"
        fill="#0561E2" />
</svg>