<svg width="90" height="90" viewBox="0 0 90 90" fill="none" xmlns="http://www.w3.org/2000/svg">
    <path fill-rule="evenodd" clip-rule="evenodd"
        d="M20.0569 90L70.0305 89.9525C81.0248 89.9425 90.0125 80.9398 90 69.9431L89.9525 19.9695C89.9401 8.97529 80.9373 -0.00997094 69.9431 8.30437e-06L19.9695 0.0474937C8.97523 0.0599753 -0.0100014 9.06272 8.35524e-06 20.0569L0.0474937 70.0306C0.0599449 81.0247 9.06275 90.01 20.0569 90ZM46.5153 48.6724C47.4911 48.6724 48.4284 48.5095 49.3071 48.2161C55.6904 49.2643 59.0304 53.9555 59.0304 59.6482H46.5153H34C34 53.9555 37.3406 49.2643 43.7234 48.2161C44.6021 48.5095 45.5396 48.6724 46.5153 48.6724ZM46.5153 46.6442C50.2991 46.6442 53.3652 43.5764 53.3652 39.7932V37.85C53.3652 34.0669 50.2991 31 46.5153 31C42.7316 31 39.6654 34.0669 39.6654 37.85V39.7932C39.6654 43.5764 42.7316 46.6442 46.5153 46.6442ZM26.2244 12H66.7727C74.6178 12 81 17.1189 81 23.4085V63.3966V65.1462L79.4595 66.3827L64.0183 78.7647L62.475 80H60.2929H26.2244C18.3822 80 12 74.8835 12 68.5939V23.4085C12 17.1189 18.3822 12 26.2244 12ZM67.7582 63.3965H75.7326L75.7324 23.4085C75.7324 19.4408 71.721 16.2239 66.7727 16.2239H26.2244C21.2777 16.2239 17.2676 19.4408 17.2676 23.4085V68.5939C17.2676 72.5593 21.2777 75.7762 26.2244 75.7762H60.2927V69.3827C60.2927 66.077 63.6371 63.3965 67.7582 63.3965Z"
        fill="white" />
</svg>