<svg width="40" height="40" viewBox="0 0 30 30" fill="none" xmlns="http://www.w3.org/2000/svg">
    <path fill-rule="evenodd" clip-rule="evenodd"
        d="M6.68564 30L23.3435 29.9842C27.0082 29.9808 30.0042 26.9799 30 23.3144L29.9842 6.65649C29.98 2.99176 26.9791 -0.0033288 23.3144 2.77671e-06L6.65649 0.0158278C2.99176 0.0199923 -0.0033288 3.02091 2.77671e-06 6.68564L0.0158278 23.3435C0.0199923 27.0082 3.02091 30.0033 6.68564 30ZM24.2503 11.5547C24.2503 11.3621 24.2503 11.1712 24.2371 10.9803C25.1063 10.3513 25.8575 9.57276 26.454 8.67897C25.6438 9.03877 24.7834 9.27454 23.9028 9.37834C24.8301 8.82325 25.5241 7.9497 25.8558 6.92132C24.9831 7.43859 24.0295 7.80366 23.0346 7.99984C21.3526 6.21139 18.5384 6.12518 16.7491 7.80718C15.5949 8.89186 15.1058 10.5088 15.4638 12.0518C11.8913 11.8732 8.56338 10.1859 6.30781 7.41044C5.129 9.4408 5.73072 12.0377 7.6828 13.3423C6.97551 13.3212 6.28406 13.1303 5.66651 12.7863V12.8426C5.66651 14.9574 7.15761 16.7784 9.2302 17.1972C8.57658 17.3758 7.89041 17.4022 7.22447 17.2737C7.80683 19.0833 9.47388 20.3228 11.3749 20.3588C9.80113 21.5948 7.85786 22.2661 5.8574 22.2643C5.50376 22.2634 5.151 22.2423 4.79999 22.2001C6.83212 23.5038 9.19589 24.1953 11.6098 24.1917V24.1953C19.7814 24.1953 24.2503 17.425 24.2503 11.5547Z"
        fill="white" />
</svg>