<svg width="666" height="504" viewBox="0 0 666 504" fill="none" xmlns="http://www.w3.org/2000/svg">
    <rect width="666" height="504" rx="10" fill="black" />
    <rect x="441.55" y="140.567" width="44.4433" height="223.2" fill="#A07EFF" stroke="black" stroke-width="5" />
    <rect x="375.372" y="112.042" width="55.8533" height="280.25" fill="#A07EFF" stroke="black" stroke-width="5" />
    <rect x="295.1" y="85.0167" width="68.0667" height="334.3" fill="#A07EFF" stroke="black" stroke-width="8" />
    <mask id="path-5-inside-1_5_114" fill="white">
        <path fill-rule="evenodd" clip-rule="evenodd"
            d="M367.167 252.167C367.167 357.193 282.026 442.333 177 442.333V347.25C177 347.25 177 347.25 177 347.25C229.513 347.25 272.083 304.68 272.083 252.167C272.083 199.654 229.513 157.083 177 157.083C177 157.083 177 157.083 177 157.083V62C282.026 62 367.167 147.141 367.167 252.167Z" />
    </mask>
    <path fill-rule="evenodd" clip-rule="evenodd"
        d="M367.167 252.167C367.167 357.193 282.026 442.333 177 442.333V347.25C177 347.25 177 347.25 177 347.25C229.513 347.25 272.083 304.68 272.083 252.167C272.083 199.654 229.513 157.083 177 157.083C177 157.083 177 157.083 177 157.083V62C282.026 62 367.167 147.141 367.167 252.167Z"
        fill="white" />
    <path
        d="M177 442.333H165V454.333H177V442.333ZM177 347.25V335.25H165V347.25H177ZM177 157.083H165V169.083H177V157.083ZM177 62V50H165V62H177ZM177 454.333C288.654 454.333 379.167 363.82 379.167 252.167H355.167C355.167 350.565 275.399 430.333 177 430.333V454.333ZM165 347.25V442.333H189V347.25H165ZM177 359.25C177 359.25 177 359.25 177 359.25C177 359.25 177 359.25 177 359.25C177 359.25 177 359.25 177 359.25C177 359.25 177 359.25 177 359.25C177 359.25 177 359.25 177 359.25C177 359.25 177 359.25 177 359.25C177 359.25 177 359.25 177 359.25C177 359.25 177 359.25 177 359.25C177 359.25 177 359.25 177 359.25C177 359.25 177 359.25 177 359.25C177 359.25 177 359.25 177 359.25C177 359.25 177 359.25 177 359.25C177 359.25 177 359.25 177 359.25C177 359.25 177 359.25 177 359.25C177 359.25 177 359.25 177 359.25C177 359.25 177 359.25 177 359.25C177 359.25 177 359.25 177 359.25C177 359.25 177 359.25 177 359.25C177 359.25 177 359.25 177 359.25C177 359.25 177 359.25 177 359.25C177 359.25 177 359.25 177 359.25C177 359.25 177 359.25 177 359.25C177 359.25 177 359.25 177 359.25C177 359.25 177 359.25 177 359.25C177 359.25 177 359.25 177 359.25C177 359.25 177 359.25 177 359.25C177 359.25 177 359.25 177 359.25C177 359.25 177 359.25 177 359.25C177 359.25 177 359.25 177 359.25C177 359.25 177 359.25 177 359.25C177 359.25 177 359.25 177 359.25C177 359.25 177 359.25 177 359.25C177 359.25 177 359.25 177 359.25C177 359.25 177 359.25 177 359.25C177 359.25 177 359.25 177 359.25C177 359.25 177 359.25 177 359.25C177 359.25 177 359.25 177 359.25C177 359.25 177 359.25 177 359.25C177 359.25 177 359.25 177 359.25C177 359.25 177 359.25 177 359.25C177 359.25 177 359.25 177 359.25C177 359.25 177 359.25 177 359.25C177 359.25 177 359.25 177 359.25C177 359.25 177 359.25 177 359.25C177 359.25 177 359.25 177 359.25C177 359.25 177 359.25 177 359.25C177 359.25 177 359.25 177 359.25C177 359.25 177 359.25 177 359.25C177 359.25 177 359.25 177 359.25C177 359.25 177 359.25 177 359.25C177 359.25 177 359.25 177 359.25C177 359.25 177 359.25 177 359.25C177 359.25 177 359.25 177 359.25C177 359.25 177 359.25 177 359.25C177 359.25 177 359.25 177 359.25C177 359.25 177 359.25 177 359.25C177 359.25 177 359.25 177 359.25C177 359.25 177 359.25 177 359.25C177 359.25 177 359.25 177 359.25C177 359.25 177 359.25 177 359.25C177 359.25 177 359.25 177 359.25C177 359.25 177 359.25 177 359.25C177 359.25 177 359.25 177 359.25C177 359.25 177 359.25 177 359.25C177 359.25 177 359.25 177 359.25C177 359.25 177 359.25 177 359.25C177 359.25 177 359.25 177 359.25C177 359.25 177 359.25 177 359.25C177 359.25 177 359.25 177 359.25C177 359.25 177 359.25 177 359.25C177 359.25 177 359.25 177 359.25C177 359.25 177 359.25 177 359.25C177 359.25 177 359.25 177 359.25C177 359.25 177 359.25 177 359.25C177 359.25 177 359.25 177 359.25C177 359.25 177 359.25 177 359.25C177 359.25 177 359.25 177 359.25C177 359.25 177 359.25 177 359.25C177 359.25 177 359.25 177 359.25C177 359.25 177 359.25 177 359.25C177 359.25 177 359.25 177 359.25C177 359.25 177 359.25 177 359.25C177 359.25 177 359.25 177 359.25C177 359.25 177 359.25 177 359.25C177 359.25 177 359.25 177 359.25C177 359.25 177 359.25 177 359.25C177 359.25 177 359.25 177 359.25C177 359.25 177 359.25 177 359.25C177 359.25 177 359.25 177 359.25C177 359.25 177 359.25 177 359.25C177 359.25 177 359.25 177 359.25C177 359.25 177 359.25 177 359.25C177 359.25 177 359.25 177 359.25C177 359.25 177 359.25 177 359.25C177 359.25 177 359.25 177 359.25C177 359.25 177 359.25 177 359.25C177 359.25 177 359.25 177 359.25C177 359.25 177 359.25 177 359.25C177 359.25 177 359.25 177 359.25C177 359.25 177 359.25 177 359.25C177 359.25 177 359.25 177 359.25C177 359.25 177 359.25 177 359.25C177 359.25 177 359.25 177 359.25C177 359.25 177 359.25 177 359.25C177 359.25 177 359.25 177 359.25C177 359.25 177 359.25 177 359.25C177 359.25 177 359.25 177 359.25C177 359.25 177 359.25 177 359.25C177 359.25 177 359.25 177 359.25C177 359.25 177 359.25 177 359.25C177 359.25 177 359.25 177 359.25C177 359.25 177 359.25 177 359.25C177 359.25 177 359.25 177 359.25C177 359.25 177 359.25 177 359.25C177 359.25 177 359.25 177 359.25C177 359.25 177 359.25 177 359.25C177 359.25 177 359.25 177 359.25C177 359.25 177 359.25 177 359.25C177 359.25 177 359.25 177 359.25C177 359.25 177 359.25 177 359.25C177 359.25 177 359.25 177 359.25C177 359.25 177 359.25 177 359.25C177 359.25 177 359.25 177 359.25C177 359.25 177 359.25 177 359.25C177 359.25 177 359.25 177 359.25C177 359.25 177 359.25 177 359.25C177 359.25 177 359.25 177 359.25C177 359.25 177 359.25 177 359.25C177 359.25 177 359.25 177 359.25C177 359.25 177 359.25 177 359.25C177 359.25 177 359.25 177 359.25C177 359.25 177 359.25 177 359.25C177 359.25 177 359.25 177 359.25C177 359.25 177 359.25 177 359.25C177 359.25 177 359.25 177 359.25C177 359.25 177 359.25 177 359.25C177 359.25 177 359.25 177 359.25C177 359.25 177 359.25 177 359.25C177 359.25 177 359.25 177 359.25C177 359.25 177 359.25 177 359.25C177 359.25 177 359.25 177 359.25C177 359.25 177 359.25 177 359.25C177 359.25 177 359.25 177 359.25C177 359.25 177 359.25 177 359.25C177 359.25 177 359.25 177 359.25C177 359.25 177 359.25 177 359.25C177 359.25 177 359.25 177 359.25C177 359.25 177 359.25 177 359.25C177 359.25 177 359.25 177 359.25C177 359.25 177 359.25 177 359.25C177 359.25 177 359.25 177 359.25C177 359.25 177 359.25 177 359.25C177 359.25 177 359.25 177 359.25C177 359.25 177 359.25 177 359.25C177 359.25 177 359.25 177 359.25C177 359.25 177 359.25 177 359.25C177 359.25 177 359.25 177 359.25C177 359.25 177 359.25 177 359.25C177 359.25 177 359.25 177 359.25C177 359.25 177 359.25 177 359.25C177 359.25 177 359.25 177 359.25C177 359.25 177 359.25 177 359.25C177 359.25 177 359.25 177 359.25C177 359.25 177 359.25 177 359.25C177 359.25 177 359.25 177 359.25C177 359.25 177 359.25 177 359.25C177 359.25 177 359.25 177 359.25C177 359.25 177 359.25 177 359.25C177 359.25 177 359.25 177 359.25C177 359.25 177 359.25 177 359.25C177 359.25 177 359.25 177 359.25C177 359.25 177 359.25 177 359.25C177 359.25 177 359.25 177 359.25C177 359.25 177 359.25 177 359.25C177 359.25 177 359.25 177 359.25C177 359.25 177 359.25 177 359.25C177 359.25 177 359.25 177 359.25C177 359.25 177 359.25 177 359.25C177 359.25 177 359.25 177 359.25C177 359.25 177 359.25 177 359.25C177 359.25 177 359.25 177 359.25C177 359.25 177 359.25 177 359.25C177 359.25 177 359.25 177 359.25C177 359.25 177 359.25 177 359.25C177 359.25 177 359.25 177 359.25C177 359.25 177 359.25 177 359.25C177 359.25 177 359.25 177 359.25C177 359.25 177 359.25 177 359.25C177 359.25 177 359.25 177 359.25C177 359.25 177 359.25 177 359.25C177 359.25 177 359.25 177 359.25C177 359.25 177 359.25 177 359.25C177 359.25 177 359.25 177 359.25C177 359.25 177 359.25 177 359.25C177 359.25 177 359.25 177 359.25C177 359.25 177 359.25 177 359.25C177 359.25 177 359.25 177 359.25C177 359.25 177 359.25 177 359.25C177 359.25 177 359.25 177 359.25C177 359.25 177 359.25 177 359.25C177 359.25 177 359.25 177 359.25C177 359.25 177 359.25 177 359.25C177 359.25 177 359.25 177 359.25C177 359.25 177 359.25 177 359.25C177 359.25 177 359.25 177 359.25C177 359.25 177 359.25 177 359.25C177 359.25 177 359.25 177 359.25C177 359.25 177 359.25 177 359.25C177 359.25 177 359.25 177 359.25C177 359.25 177 359.25 177 359.25C177 359.25 177 359.25 177 359.25C177 359.25 177 359.25 177 359.25C177 359.25 177 359.25 177 359.25C177 359.25 177 359.25 177 359.25C177 359.25 177 359.25 177 359.25C177 359.25 177 359.25 177 359.25C177 359.25 177 359.25 177 359.25C177 359.25 177 359.25 177 359.25C177 359.25 177 359.25 177 359.25C177 359.25 177 359.25 177 359.25C177 359.25 177 359.25 177 359.25C177 359.25 177 359.25 177 359.25C177 359.25 177 359.25 177 359.25C177 359.25 177 359.25 177 359.25C177 359.25 177 359.25 177 359.25C177 359.25 177 359.25 177 359.25C177 359.25 177 359.25 177 359.25C177 359.25 177 359.25 177 359.25C177 359.25 177 359.25 177 359.25C177 359.25 177 359.25 177 359.25C177 359.25 177 359.25 177 359.25C177 359.25 177 359.25 177 359.25C177 359.25 177 359.25 177 359.25C177 359.25 177 359.25 177 359.25C177 359.25 177 359.25 177 359.25C177 359.25 177 359.25 177 359.25C177 359.25 177 359.25 177 359.25C177 359.25 177 359.25 177 359.25C177 359.25 177 359.25 177 359.25C177 359.25 177 359.25 177 359.25C177 359.25 177 359.25 177 359.25C177 359.25 177 359.25 177 359.25C177 359.25 177 359.25 177 359.25C177 359.25 177 359.25 177 359.25C177 359.25 177 359.25 177 359.25C177 359.25 177 359.25 177 359.25C177 359.25 177 359.25 177 359.25C177 359.25 177 359.25 177 359.25C177 359.25 177 359.25 177 359.25C177 359.25 177 359.25 177 359.25C177 359.25 177 359.25 177 359.25C177 359.25 177 359.25 177 359.25C177 359.25 177 359.25 177 359.25C177 359.25 177 359.25 177 359.25C177 359.25 177 359.25 177 359.25C177 359.25 177 359.25 177 359.25C177 359.25 177 359.25 177 359.25C177 359.25 177 359.25 177 359.25C177 359.25 177 359.25 177 359.25C177 359.25 177 359.25 177 359.25C177 359.25 177 359.25 177 359.25C177 359.25 177 359.25 177 359.25C177 359.25 177 359.25 177 359.25C177 359.25 177 359.25 177 359.25C177 359.25 177 359.25 177 359.25C177 359.25 177 359.25 177 359.25C177 359.25 177 359.25 177 359.25C177 359.25 177 359.25 177 359.25C177 359.25 177 359.25 177 359.25C177 359.25 177 359.25 177 359.25C177 359.25 177 359.25 177 359.25C177 359.25 177 359.25 177 359.25C177 359.25 177 359.25 177 359.25C177 359.25 177 359.25 177 359.25C177 359.25 177 359.25 177 359.25C177 359.25 177 359.25 177 359.25C177 359.25 177 359.25 177 359.25C177 359.25 177 359.25 177 359.25C177 359.25 177 359.25 177 359.25C177 359.25 177 359.25 177 359.25C177 359.25 177 359.25 177 359.25C177 359.25 177 359.25 177 359.25C177 359.25 177 359.25 177 359.25C177 359.25 177 359.25 177 359.25C177 359.25 177 359.25 177 359.25C177 359.25 177 359.25 177 359.25C177 359.25 177 359.25 177 359.25C177 359.25 177 359.25 177 359.25C177 359.25 177 359.25 177 359.25C177 359.25 177 359.25 177 359.25C177 359.25 177 359.25 177 359.25C177 359.25 177 359.25 177 359.25C177 359.25 177 359.25 177 359.25C177 359.25 177 359.25 177 359.25C177 359.25 177 359.25 177 359.25C177 359.25 177 359.25 177 359.25C177 359.25 177 359.25 177 359.25C177 359.25 177 359.25 177 359.25C177 359.25 177 359.25 177 359.25C177 359.25 177 359.25 177 359.25C177 359.25 177 359.25 177 359.25C177 359.25 177 359.25 177 359.25C177 359.25 177 359.25 177 359.25C177 359.25 177 359.25 177 359.25C177 359.25 177 359.25 177 359.25C177 359.25 177 359.25 177 359.25C177 359.25 177 359.25 177 359.25C177 359.25 177 359.25 177 359.25C177 359.25 177 359.25 177 359.25C177 359.25 177 359.25 177 359.25C177 359.25 177 359.25 177 359.25C177 359.25 177 359.25 177 359.25C177 359.25 177 359.25 177 359.25C177 359.25 177 359.25 177 359.25C177 359.25 177 359.25 177 359.25C177 359.25 177 359.25 177 359.25C177 359.25 177 359.25 177 359.25C177 359.25 177 359.25 177 359.25C177 359.25 177 359.25 177 359.25C177 359.25 177 359.25 177 359.25C177 359.25 177 359.25 177 359.25C177 359.25 177 359.25 177 359.25C177 359.25 177 359.25 177 359.25C177 359.25 177 359.25 177 359.25C177 359.25 177 359.25 177 359.25C177 359.25 177 359.25 177 359.25C177 359.25 177 359.25 177 359.25C177 359.25 177 359.25 177 359.25C177 359.25 177 359.25 177 359.25C177 359.25 177 359.25 177 359.25C177 359.25 177 359.25 177 359.25C177 359.25 177 359.25 177 359.25C177 359.25 177 359.25 177 359.25C177 359.25 177 359.25 177 359.25C177 359.25 177 359.25 177 359.25C177 359.25 177 359.25 177 359.25C177 359.25 177 359.25 177 359.25C177 359.25 177 359.25 177 359.25C177 359.25 177 359.25 177 359.25C177 359.25 177 359.25 177 359.25C177 359.25 177 359.25 177 359.25C177 359.25 177 359.25 177 359.25C177 359.25 177 359.25 177 359.25C177 359.25 177 359.25 177 359.25C177 359.25 177 359.25 177 359.25C177 359.25 177 359.25 177 359.25C177 359.25 177 359.25 177 359.25C177 359.25 177 359.25 177 359.25C177 359.25 177 359.25 177 359.25C177 359.25 177 359.25 177 359.25C177 359.25 177 359.25 177 359.25C177 359.25 177 359.25 177 359.25C177 359.25 177 359.25 177 359.25C177 359.25 177 359.25 177 359.25C177 359.25 177 359.25 177 359.25C177 359.25 177 359.25 177 359.25C177 359.25 177 359.25 177 359.25C177 359.25 177 359.25 177 359.25C177 359.25 177 359.25 177 359.25C177 359.25 177 359.25 177 359.25C177 359.25 177 359.25 177 359.25C177 359.25 177 359.25 177 359.25C177 359.25 177 359.25 177 359.25C177 359.25 177 359.25 177 359.25C177 359.25 177 359.25 177 359.25C177 359.25 177 359.25 177 359.25C177 359.25 177 359.25 177 359.25C177 359.25 177 359.25 177 359.25C177 359.25 177 359.25 177 359.25C177 359.25 177 359.25 177 359.25C177 359.25 177 359.25 177 359.25C177 359.25 177 359.25 177 359.25C177 359.25 177 359.25 177 359.25C177 359.25 177 359.25 177 359.25C177 359.25 177 359.25 177 359.25C177 359.25 177 359.25 177 359.25C177 359.25 177 359.25 177 359.25C177 359.25 177 359.25 177 359.25C177 359.25 177 359.25 177 359.25C177 359.25 177 359.25 177 359.25C177 359.25 177 359.25 177 359.25C177 359.25 177 359.25 177 359.25C177 359.25 177 359.25 177 359.25C177 359.25 177 359.25 177 359.25C177 359.25 177 359.25 177 359.25C177 359.25 177 359.25 177 359.25C177 359.25 177 359.25 177 359.25C177 359.25 177 359.25 177 359.25C177 359.25 177 359.25 177 359.25C177 359.25 177 359.25 177 359.25C177 359.25 177 359.25 177 359.25C177 359.25 177 359.25 177 359.25C177 359.25 177 359.25 177 359.25C177 359.25 177 359.25 177 359.25C177 359.25 177 359.25 177 359.25C177 359.25 177 359.25 177 359.25C177 359.25 177 359.25 177 359.25C177 359.25 177 359.25 177 359.25C177 359.25 177 359.25 177 359.25C177 359.25 177 359.25 177 359.25C177 359.25 177 359.25 177 359.25C177 359.25 177 359.25 177 359.25C177 359.25 177 359.25 177 359.25C177 359.25 177 359.25 177 359.25C177 359.25 177 359.25 177 359.25C177 359.25 177 359.25 177 359.25C177 359.25 177 359.25 177 359.25C177 359.25 177 359.25 177 359.25C177 359.25 177 359.25 177 359.25C177 359.25 177 359.25 177 359.25C177 359.25 177 359.25 177 359.25C177 359.25 177 359.25 177 359.25C177 359.25 177 359.25 177 359.25C177 359.25 177 359.25 177 359.25C177 359.25 177 359.25 177 359.25C177 359.25 177 359.25 177 359.25C177 359.25 177 359.25 177 359.25C177 359.25 177 359.25 177 359.25C177 359.25 177 359.25 177 359.25C177 359.25 177 359.25 177 359.25C177 359.25 177 359.25 177 359.25C177 359.25 177 359.25 177 359.25C177 359.25 177 359.25 177 359.25C177 359.25 177 359.25 177 359.25C177 359.25 177 359.25 177 359.25C177 359.25 177 359.25 177 359.25C177 359.25 177 359.25 177 359.25C177 359.25 177 359.25 177 359.25C177 359.25 177 359.25 177 359.25C177 359.25 177 359.25 177 359.25C177 359.25 177 359.25 177 359.25C177 359.25 177 359.25 177 359.25C177 359.25 177 359.25 177 359.25C177 359.25 177 359.25 177 359.25C177 359.25 177 359.25 177 359.25C177 359.25 177 359.25 177 359.25C177 359.25 177 359.25 177 359.25C177 359.25 177 359.25 177 359.25C177 359.25 177 359.25 177 359.25C177 359.25 177 359.25 177 359.25C177 359.25 177 359.25 177 359.25C177 359.25 177 359.25 177 359.25C177 359.25 177 359.25 177 359.25C177 359.25 177 359.25 177 359.25C177 359.25 177 359.25 177 359.25C177 359.25 177 359.25 177 359.25C177 359.25 177 359.25 177 359.25C177 359.25 177 359.25 177 359.25C177 359.25 177 359.25 177 359.25C177 359.25 177 359.25 177 359.25C177 359.25 177 359.25 177 359.25C177 359.25 177 359.25 177 359.25C177 359.25 177 359.25 177 359.25C177 359.25 177 359.25 177 359.25C177 359.25 177 359.25 177 359.25C177 359.25 177 359.25 177 359.25C177 359.25 177 359.25 177 359.25C177 359.25 177 359.25 177 359.25C177 359.25 177 359.25 177 359.25C177 359.25 177 359.25 177 359.25C177 359.25 177 359.25 177 359.25C177 359.25 177 359.25 177 359.25C177 359.25 177 359.25 177 359.25C177 359.25 177 359.25 177 359.25C177 359.25 177 359.25 177 359.25C177 359.25 177 359.25 177 359.25C177 359.25 177 359.25 177 359.25C177 359.25 177 359.25 177 359.25C177 359.25 177 359.25 177 359.25C177 359.25 177 359.25 177 359.25C177 359.25 177 359.25 177 359.25C177 359.25 177 359.25 177 359.25C177 359.25 177 359.25 177 359.25C177 359.25 177 359.25 177 359.25C177 359.25 177 359.25 177 359.25C177 359.25 177 359.25 177 359.25C177 359.25 177 359.25 177 359.25C177 359.25 177 359.25 177 359.25C177 359.25 177 359.25 177 359.25C177 359.25 177 359.25 177 359.25C177 359.25 177 359.25 177 359.25C177 359.25 177 359.25 177 359.25C177 359.25 177 359.25 177 359.25C177 359.25 177 359.25 177 359.25C177 359.25 177 359.25 177 359.25C177 359.25 177 359.25 177 359.25C177 359.25 177 359.25 177 359.25C177 359.25 177 359.25 177 359.25C177 359.25 177 359.25 177 359.25C177 359.25 177 359.25 177 359.25C177 359.25 177 359.25 177 359.25C177 359.25 177 359.25 177 359.25C177 359.25 177 359.25 177 359.25C177 359.25 177 359.25 177 359.25C177 359.25 177 359.25 177 359.25C177 359.25 177 359.25 177 359.25C177 359.25 177 359.25 177 359.25C177 359.25 177 359.25 177 359.25C177 359.25 177 359.25 177 359.25C177 359.25 177 359.25 177 359.25C177 359.25 177 359.25 177 359.25C177 359.25 177 359.25 177 359.25C177 359.25 177 359.25 177 359.25C177 359.25 177 359.25 177 359.25C177 359.25 177 359.25 177 359.25C177 359.25 177 359.25 177 359.25C177 359.25 177 359.25 177 359.25C177 359.25 177 359.25 177 359.25C177 359.25 177 359.25 177 359.25C177 359.25 177 359.25 177 359.25C177 359.25 177 359.25 177 359.25C177 359.25 177 359.25 177 359.25V335.25C177 335.25 177 335.25 177 335.25C177 335.25 177 335.25 177 335.25C177 335.25 177 335.25 177 335.25C177 335.25 177 335.25 177 335.25C177 335.25 177 335.25 177 335.25C177 335.25 177 335.25 177 335.25C177 335.25 177 335.25 177 335.25C177 335.25 177 335.25 177 335.25C177 335.25 177 335.25 177 335.25C177 335.25 177 335.25 177 335.25C177 335.25 177 335.25 177 335.25C177 335.25 177 335.25 177 335.25C177 335.25 177 335.25 177 335.25C177 335.25 177 335.25 177 335.25C177 335.25 177 335.25 177 335.25C177 335.25 177 335.25 177 335.25C177 335.25 177 335.25 177 335.25C177 335.25 177 335.25 177 335.25C177 335.25 177 335.25 177 335.25C177 335.25 177 335.25 177 335.25C177 335.25 177 335.25 177 335.25C177 335.25 177 335.25 177 335.25C177 335.25 177 335.25 177 335.25C177 335.25 177 335.25 177 335.25C177 335.25 177 335.25 177 335.25C177 335.25 177 335.25 177 335.25C177 335.25 177 335.25 177 335.25C177 335.25 177 335.25 177 335.25C177 335.25 177 335.25 177 335.25C177 335.25 177 335.25 177 335.25C177 335.25 177 335.25 177 335.25C177 335.25 177 335.25 177 335.25C177 335.25 177 335.25 177 335.25C177 335.25 177 335.25 177 335.25C177 335.25 177 335.25 177 335.25C177 335.25 177 335.25 177 335.25C177 335.25 177 335.25 177 335.25C177 335.25 177 335.25 177 335.25C177 335.25 177 335.25 177 335.25C177 335.25 177 335.25 177 335.25C177 335.25 177 335.25 177 335.25C177 335.25 177 335.25 177 335.25C177 335.25 177 335.25 177 335.25C177 335.25 177 335.25 177 335.25C177 335.25 177 335.25 177 335.25C177 335.25 177 335.25 177 335.25C177 335.25 177 335.25 177 335.25C177 335.25 177 335.25 177 335.25C177 335.25 177 335.25 177 335.25C177 335.25 177 335.25 177 335.25C177 335.25 177 335.25 177 335.25C177 335.25 177 335.25 177 335.25C177 335.25 177 335.25 177 335.25C177 335.25 177 335.25 177 335.25C177 335.25 177 335.25 177 335.25C177 335.25 177 335.25 177 335.25C177 335.25 177 335.25 177 335.25C177 335.25 177 335.25 177 335.25C177 335.25 177 335.25 177 335.25C177 335.25 177 335.25 177 335.25C177 335.25 177 335.25 177 335.25C177 335.25 177 335.25 177 335.25C177 335.25 177 335.25 177 335.25C177 335.25 177 335.25 177 335.25C177 335.25 177 335.25 177 335.25C177 335.25 177 335.25 177 335.25C177 335.25 177 335.25 177 335.25C177 335.25 177 335.25 177 335.25C177 335.25 177 335.25 177 335.25C177 335.25 177 335.25 177 335.25C177 335.25 177 335.25 177 335.25C177 335.25 177 335.25 177 335.25C177 335.25 177 335.25 177 335.25C177 335.25 177 335.25 177 335.25C177 335.25 177 335.25 177 335.25C177 335.25 177 335.25 177 335.25C177 335.25 177 335.25 177 335.25C177 335.25 177 335.25 177 335.25C177 335.25 177 335.25 177 335.25C177 335.25 177 335.25 177 335.25C177 335.25 177 335.25 177 335.25C177 335.25 177 335.25 177 335.25C177 335.25 177 335.25 177 335.25C177 335.25 177 335.25 177 335.25C177 335.25 177 335.25 177 335.25C177 335.25 177 335.25 177 335.25C177 335.25 177 335.25 177 335.25C177 335.25 177 335.25 177 335.25C177 335.25 177 335.25 177 335.25C177 335.25 177 335.25 177 335.25C177 335.25 177 335.25 177 335.25C177 335.25 177 335.25 177 335.25C177 335.25 177 335.25 177 335.25C177 335.25 177 335.25 177 335.25C177 335.25 177 335.25 177 335.25C177 335.25 177 335.25 177 335.25C177 335.25 177 335.25 177 335.25C177 335.25 177 335.25 177 335.25C177 335.25 177 335.25 177 335.25C177 335.25 177 335.25 177 335.25C177 335.25 177 335.25 177 335.25C177 335.25 177 335.25 177 335.25C177 335.25 177 335.25 177 335.25C177 335.25 177 335.25 177 335.25C177 335.25 177 335.25 177 335.25C177 335.25 177 335.25 177 335.25C177 335.25 177 335.25 177 335.25C177 335.25 177 335.25 177 335.25C177 335.25 177 335.25 177 335.25C177 335.25 177 335.25 177 335.25C177 335.25 177 335.25 177 335.25C177 335.25 177 335.25 177 335.25C177 335.25 177 335.25 177 335.25C177 335.25 177 335.25 177 335.25C177 335.25 177 335.25 177 335.25C177 335.25 177 335.25 177 335.25C177 335.25 177 335.25 177 335.25C177 335.25 177 335.25 177 335.25C177 335.25 177 335.25 177 335.25C177 335.25 177 335.25 177 335.25C177 335.25 177 335.25 177 335.25C177 335.25 177 335.25 177 335.25C177 335.25 177 335.25 177 335.25C177 335.25 177 335.25 177 335.25C177 335.25 177 335.25 177 335.25C177 335.25 177 335.25 177 335.25C177 335.25 177 335.25 177 335.25C177 335.25 177 335.25 177 335.25C177 335.25 177 335.25 177 335.25C177 335.25 177 335.25 177 335.25C177 335.25 177 335.25 177 335.25C177 335.25 177 335.25 177 335.25C177 335.25 177 335.25 177 335.25C177 335.25 177 335.25 177 335.25C177 335.25 177 335.25 177 335.25C177 335.25 177 335.25 177 335.25C177 335.25 177 335.25 177 335.25C177 335.25 177 335.25 177 335.25C177 335.25 177 335.25 177 335.25C177 335.25 177 335.25 177 335.25C177 335.25 177 335.25 177 335.25C177 335.25 177 335.25 177 335.25C177 335.25 177 335.25 177 335.25C177 335.25 177 335.25 177 335.25C177 335.25 177 335.25 177 335.25C177 335.25 177 335.25 177 335.25C177 335.25 177 335.25 177 335.25C177 335.25 177 335.25 177 335.25C177 335.25 177 335.25 177 335.25C177 335.25 177 335.25 177 335.25C177 335.25 177 335.25 177 335.25C177 335.25 177 335.25 177 335.25C177 335.25 177 335.25 177 335.25C177 335.25 177 335.25 177 335.25C177 335.25 177 335.25 177 335.25C177 335.25 177 335.25 177 335.25C177 335.25 177 335.25 177 335.25C177 335.25 177 335.25 177 335.25C177 335.25 177 335.25 177 335.25C177 335.25 177 335.25 177 335.25C177 335.25 177 335.25 177 335.25C177 335.25 177 335.25 177 335.25C177 335.25 177 335.25 177 335.25C177 335.25 177 335.25 177 335.25C177 335.25 177 335.25 177 335.25C177 335.25 177 335.25 177 335.25C177 335.25 177 335.25 177 335.25C177 335.25 177 335.25 177 335.25C177 335.25 177 335.25 177 335.25C177 335.25 177 335.25 177 335.25C177 335.25 177 335.25 177 335.25C177 335.25 177 335.25 177 335.25C177 335.25 177 335.25 177 335.25C177 335.25 177 335.25 177 335.25C177 335.25 177 335.25 177 335.25C177 335.25 177 335.25 177 335.25C177 335.25 177 335.25 177 335.25C177 335.25 177 335.25 177 335.25C177 335.25 177 335.25 177 335.25C177 335.25 177 335.25 177 335.25C177 335.25 177 335.25 177 335.25C177 335.25 177 335.25 177 335.25C177 335.25 177 335.25 177 335.25C177 335.25 177 335.25 177 335.25C177 335.25 177 335.25 177 335.25C177 335.25 177 335.25 177 335.25C177 335.25 177 335.25 177 335.25C177 335.25 177 335.25 177 335.25C177 335.25 177 335.25 177 335.25C177 335.25 177 335.25 177 335.25C177 335.25 177 335.25 177 335.25C177 335.25 177 335.25 177 335.25C177 335.25 177 335.25 177 335.25C177 335.25 177 335.25 177 335.25C177 335.25 177 335.25 177 335.25C177 335.25 177 335.25 177 335.25C177 335.25 177 335.25 177 335.25C177 335.25 177 335.25 177 335.25C177 335.25 177 335.25 177 335.25C177 335.25 177 335.25 177 335.25C177 335.25 177 335.25 177 335.25C177 335.25 177 335.25 177 335.25C177 335.25 177 335.25 177 335.25C177 335.25 177 335.25 177 335.25C177 335.25 177 335.25 177 335.25C177 335.25 177 335.25 177 335.25C177 335.25 177 335.25 177 335.25C177 335.25 177 335.25 177 335.25C177 335.25 177 335.25 177 335.25C177 335.25 177 335.25 177 335.25C177 335.25 177 335.25 177 335.25C177 335.25 177 335.25 177 335.25C177 335.25 177 335.25 177 335.25C177 335.25 177 335.25 177 335.25C177 335.25 177 335.25 177 335.25C177 335.25 177 335.25 177 335.25C177 335.25 177 335.25 177 335.25C177 335.25 177 335.25 177 335.25C177 335.25 177 335.25 177 335.25C177 335.25 177 335.25 177 335.25C177 335.25 177 335.25 177 335.25C177 335.25 177 335.25 177 335.25C177 335.25 177 335.25 177 335.25C177 335.25 177 335.25 177 335.25C177 335.25 177 335.25 177 335.25C177 335.25 177 335.25 177 335.25C177 335.25 177 335.25 177 335.25C177 335.25 177 335.25 177 335.25C177 335.25 177 335.25 177 335.25C177 335.25 177 335.25 177 335.25C177 335.25 177 335.25 177 335.25C177 335.25 177 335.25 177 335.25C177 335.25 177 335.25 177 335.25C177 335.25 177 335.25 177 335.25C177 335.25 177 335.25 177 335.25C177 335.25 177 335.25 177 335.25C177 335.25 177 335.25 177 335.25C177 335.25 177 335.25 177 335.25C177 335.25 177 335.25 177 335.25C177 335.25 177 335.25 177 335.25C177 335.25 177 335.25 177 335.25C177 335.25 177 335.25 177 335.25C177 335.25 177 335.25 177 335.25C177 335.25 177 335.25 177 335.25C177 335.25 177 335.25 177 335.25C177 335.25 177 335.25 177 335.25C177 335.25 177 335.25 177 335.25C177 335.25 177 335.25 177 335.25C177 335.25 177 335.25 177 335.25C177 335.25 177 335.25 177 335.25C177 335.25 177 335.25 177 335.25C177 335.25 177 335.25 177 335.25C177 335.25 177 335.25 177 335.25C177 335.25 177 335.25 177 335.25C177 335.25 177 335.25 177 335.25C177 335.25 177 335.25 177 335.25C177 335.25 177 335.25 177 335.25C177 335.25 177 335.25 177 335.25C177 335.25 177 335.25 177 335.25C177 335.25 177 335.25 177 335.25C177 335.25 177 335.25 177 335.25C177 335.25 177 335.25 177 335.25C177 335.25 177 335.25 177 335.25C177 335.25 177 335.25 177 335.25C177 335.25 177 335.25 177 335.25C177 335.25 177 335.25 177 335.25C177 335.25 177 335.25 177 335.25C177 335.25 177 335.25 177 335.25C177 335.25 177 335.25 177 335.25C177 335.25 177 335.25 177 335.25C177 335.25 177 335.25 177 335.25C177 335.25 177 335.25 177 335.25C177 335.25 177 335.25 177 335.25C177 335.25 177 335.25 177 335.25C177 335.25 177 335.25 177 335.25C177 335.25 177 335.25 177 335.25C177 335.25 177 335.25 177 335.25C177 335.25 177 335.25 177 335.25C177 335.25 177 335.25 177 335.25C177 335.25 177 335.25 177 335.25C177 335.25 177 335.25 177 335.25C177 335.25 177 335.25 177 335.25C177 335.25 177 335.25 177 335.25C177 335.25 177 335.25 177 335.25C177 335.25 177 335.25 177 335.25C177 335.25 177 335.25 177 335.25C177 335.25 177 335.25 177 335.25C177 335.25 177 335.25 177 335.25C177 335.25 177 335.25 177 335.25C177 335.25 177 335.25 177 335.25C177 335.25 177 335.25 177 335.25C177 335.25 177 335.25 177 335.25C177 335.25 177 335.25 177 335.25C177 335.25 177 335.25 177 335.25C177 335.25 177 335.25 177 335.25C177 335.25 177 335.25 177 335.25C177 335.25 177 335.25 177 335.25C177 335.25 177 335.25 177 335.25C177 335.25 177 335.25 177 335.25C177 335.25 177 335.25 177 335.25C177 335.25 177 335.25 177 335.25C177 335.25 177 335.25 177 335.25C177 335.25 177 335.25 177 335.25C177 335.25 177 335.25 177 335.25C177 335.25 177 335.25 177 335.25C177 335.25 177 335.25 177 335.25C177 335.25 177 335.25 177 335.25C177 335.25 177 335.25 177 335.25C177 335.25 177 335.25 177 335.25C177 335.25 177 335.25 177 335.25C177 335.25 177 335.25 177 335.25C177 335.25 177 335.25 177 335.25C177 335.25 177 335.25 177 335.25C177 335.25 177 335.25 177 335.25C177 335.25 177 335.25 177 335.25C177 335.25 177 335.25 177 335.25C177 335.25 177 335.25 177 335.25C177 335.25 177 335.25 177 335.25C177 335.25 177 335.25 177 335.25C177 335.25 177 335.25 177 335.25C177 335.25 177 335.25 177 335.25C177 335.25 177 335.25 177 335.25C177 335.25 177 335.25 177 335.25C177 335.25 177 335.25 177 335.25C177 335.25 177 335.25 177 335.25C177 335.25 177 335.25 177 335.25C177 335.25 177 335.25 177 335.25C177 335.25 177 335.25 177 335.25C177 335.25 177 335.25 177 335.25C177 335.25 177 335.25 177 335.25C177 335.25 177 335.25 177 335.25C177 335.25 177 335.25 177 335.25C177 335.25 177 335.25 177 335.25C177 335.25 177 335.25 177 335.25C177 335.25 177 335.25 177 335.25C177 335.25 177 335.25 177 335.25C177 335.25 177 335.25 177 335.25C177 335.25 177 335.25 177 335.25C177 335.25 177 335.25 177 335.25C177 335.25 177 335.25 177 335.25C177 335.25 177 335.25 177 335.25C177 335.25 177 335.25 177 335.25C177 335.25 177 335.25 177 335.25C177 335.25 177 335.25 177 335.25C177 335.25 177 335.25 177 335.25C177 335.25 177 335.25 177 335.25C177 335.25 177 335.25 177 335.25C177 335.25 177 335.25 177 335.25C177 335.25 177 335.25 177 335.25C177 335.25 177 335.25 177 335.25C177 335.25 177 335.25 177 335.25C177 335.25 177 335.25 177 335.25C177 335.25 177 335.25 177 335.25C177 335.25 177 335.25 177 335.25C177 335.25 177 335.25 177 335.25C177 335.25 177 335.25 177 335.25C177 335.25 177 335.25 177 335.25C177 335.25 177 335.25 177 335.25C177 335.25 177 335.25 177 335.25C177 335.25 177 335.25 177 335.25C177 335.25 177 335.25 177 335.25C177 335.25 177 335.25 177 335.25C177 335.25 177 335.25 177 335.25C177 335.25 177 335.25 177 335.25C177 335.25 177 335.25 177 335.25C177 335.25 177 335.25 177 335.25C177 335.25 177 335.25 177 335.25C177 335.25 177 335.25 177 335.25C177 335.25 177 335.25 177 335.25C177 335.25 177 335.25 177 335.25C177 335.25 177 335.25 177 335.25C177 335.25 177 335.25 177 335.25C177 335.25 177 335.25 177 335.25C177 335.25 177 335.25 177 335.25C177 335.25 177 335.25 177 335.25C177 335.25 177 335.25 177 335.25C177 335.25 177 335.25 177 335.25C177 335.25 177 335.25 177 335.25C177 335.25 177 335.25 177 335.25C177 335.25 177 335.25 177 335.25C177 335.25 177 335.25 177 335.25C177 335.25 177 335.25 177 335.25C177 335.25 177 335.25 177 335.25C177 335.25 177 335.25 177 335.25C177 335.25 177 335.25 177 335.25C177 335.25 177 335.25 177 335.25C177 335.25 177 335.25 177 335.25C177 335.25 177 335.25 177 335.25C177 335.25 177 335.25 177 335.25C177 335.25 177 335.25 177 335.25C177 335.25 177 335.25 177 335.25C177 335.25 177 335.25 177 335.25C177 335.25 177 335.25 177 335.25C177 335.25 177 335.25 177 335.25C177 335.25 177 335.25 177 335.25C177 335.25 177 335.25 177 335.25C177 335.25 177 335.25 177 335.25C177 335.25 177 335.25 177 335.25C177 335.25 177 335.25 177 335.25C177 335.25 177 335.25 177 335.25C177 335.25 177 335.25 177 335.25C177 335.25 177 335.25 177 335.25C177 335.25 177 335.25 177 335.25C177 335.25 177 335.25 177 335.25C177 335.25 177 335.25 177 335.25C177 335.25 177 335.25 177 335.25C177 335.25 177 335.25 177 335.25C177 335.25 177 335.25 177 335.25C177 335.25 177 335.25 177 335.25C177 335.25 177 335.25 177 335.25C177 335.25 177 335.25 177 335.25C177 335.25 177 335.25 177 335.25C177 335.25 177 335.25 177 335.25C177 335.25 177 335.25 177 335.25C177 335.25 177 335.25 177 335.25C177 335.25 177 335.25 177 335.25C177 335.25 177 335.25 177 335.25C177 335.25 177 335.25 177 335.25C177 335.25 177 335.25 177 335.25C177 335.25 177 335.25 177 335.25C177 335.25 177 335.25 177 335.25C177 335.25 177 335.25 177 335.25C177 335.25 177 335.25 177 335.25C177 335.25 177 335.25 177 335.25C177 335.25 177 335.25 177 335.25C177 335.25 177 335.25 177 335.25C177 335.25 177 335.25 177 335.25C177 335.25 177 335.25 177 335.25C177 335.25 177 335.25 177 335.25C177 335.25 177 335.25 177 335.25C177 335.25 177 335.25 177 335.25C177 335.25 177 335.25 177 335.25C177 335.25 177 335.25 177 335.25C177 335.25 177 335.25 177 335.25C177 335.25 177 335.25 177 335.25C177 335.25 177 335.25 177 335.25C177 335.25 177 335.25 177 335.25C177 335.25 177 335.25 177 335.25C177 335.25 177 335.25 177 335.25C177 335.25 177 335.25 177 335.25C177 335.25 177 335.25 177 335.25C177 335.25 177 335.25 177 335.25C177 335.25 177 335.25 177 335.25C177 335.25 177 335.25 177 335.25C177 335.25 177 335.25 177 335.25C177 335.25 177 335.25 177 335.25C177 335.25 177 335.25 177 335.25C177 335.25 177 335.25 177 335.25C177 335.25 177 335.25 177 335.25C177 335.25 177 335.25 177 335.25C177 335.25 177 335.25 177 335.25C177 335.25 177 335.25 177 335.25C177 335.25 177 335.25 177 335.25C177 335.25 177 335.25 177 335.25C177 335.25 177 335.25 177 335.25C177 335.25 177 335.25 177 335.25C177 335.25 177 335.25 177 335.25C177 335.25 177 335.25 177 335.25C177 335.25 177 335.25 177 335.25C177 335.25 177 335.25 177 335.25C177 335.25 177 335.25 177 335.25C177 335.25 177 335.25 177 335.25C177 335.25 177 335.25 177 335.25C177 335.25 177 335.25 177 335.25C177 335.25 177 335.25 177 335.25C177 335.25 177 335.25 177 335.25C177 335.25 177 335.25 177 335.25C177 335.25 177 335.25 177 335.25C177 335.25 177 335.25 177 335.25C177 335.25 177 335.25 177 335.25C177 335.25 177 335.25 177 335.25C177 335.25 177 335.25 177 335.25C177 335.25 177 335.25 177 335.25C177 335.25 177 335.25 177 335.25C177 335.25 177 335.25 177 335.25C177 335.25 177 335.25 177 335.25C177 335.25 177 335.25 177 335.25C177 335.25 177 335.25 177 335.25C177 335.25 177 335.25 177 335.25C177 335.25 177 335.25 177 335.25C177 335.25 177 335.25 177 335.25C177 335.25 177 335.25 177 335.25C177 335.25 177 335.25 177 335.25C177 335.25 177 335.25 177 335.25C177 335.25 177 335.25 177 335.25C177 335.25 177 335.25 177 335.25C177 335.25 177 335.25 177 335.25C177 335.25 177 335.25 177 335.25C177 335.25 177 335.25 177 335.25C177 335.25 177 335.25 177 335.25C177 335.25 177 335.25 177 335.25C177 335.25 177 335.25 177 335.25C177 335.25 177 335.25 177 335.25C177 335.25 177 335.25 177 335.25C177 335.25 177 335.25 177 335.25C177 335.25 177 335.25 177 335.25C177 335.25 177 335.25 177 335.25C177 335.25 177 335.25 177 335.25C177 335.25 177 335.25 177 335.25C177 335.25 177 335.25 177 335.25C177 335.25 177 335.25 177 335.25C177 335.25 177 335.25 177 335.25C177 335.25 177 335.25 177 335.25C177 335.25 177 335.25 177 335.25C177 335.25 177 335.25 177 335.25C177 335.25 177 335.25 177 335.25C177 335.25 177 335.25 177 335.25C177 335.25 177 335.25 177 335.25C177 335.25 177 335.25 177 335.25C177 335.25 177 335.25 177 335.25C177 335.25 177 335.25 177 335.25C177 335.25 177 335.25 177 335.25V359.25ZM177 359.25C236.141 359.25 284.083 311.307 284.083 252.167H260.083C260.083 298.052 222.886 335.25 177 335.25V359.25ZM284.083 252.167C284.083 193.026 236.141 145.083 177 145.083V169.083C222.886 169.083 260.083 206.281 260.083 252.167H284.083ZM177 145.083C177 145.083 177 145.083 177 145.083C177 145.083 177 145.083 177 145.083C177 145.083 177 145.083 177 145.083C177 145.083 177 145.083 177 145.083C177 145.083 177 145.083 177 145.083C177 145.083 177 145.083 177 145.083C177 145.083 177 145.083 177 145.083C177 145.083 177 145.083 177 145.083C177 145.083 177 145.083 177 145.083C177 145.083 177 145.083 177 145.083C177 145.083 177 145.083 177 145.083C177 145.083 177 145.083 177 145.083C177 145.083 177 145.083 177 145.083C177 145.083 177 145.083 177 145.083C177 145.083 177 145.083 177 145.083C177 145.083 177 145.083 177 145.083C177 145.083 177 145.083 177 145.083C177 145.083 177 145.083 177 145.083C177 145.083 177 145.083 177 145.083C177 145.083 177 145.083 177 145.083C177 145.083 177 145.083 177 145.083C177 145.083 177 145.083 177 145.083C177 145.083 177 145.083 177 145.083C177 145.083 177 145.083 177 145.083C177 145.083 177 145.083 177 145.083C177 145.083 177 145.083 177 145.083C177 145.083 177 145.083 177 145.083C177 145.083 177 145.083 177 145.083C177 145.083 177 145.083 177 145.083C177 145.083 177 145.083 177 145.083C177 145.083 177 145.083 177 145.083C177 145.083 177 145.083 177 145.083C177 145.083 177 145.083 177 145.083C177 145.083 177 145.083 177 145.083C177 145.083 177 145.083 177 145.083C177 145.083 177 145.083 177 145.083C177 145.083 177 145.083 177 145.083C177 145.083 177 145.083 177 145.083C177 145.083 177 145.083 177 145.083C177 145.083 177 145.083 177 145.083C177 145.083 177 145.083 177 145.083C177 145.083 177 145.083 177 145.083C177 145.083 177 145.083 177 145.083C177 145.083 177 145.083 177 145.083C177 145.083 177 145.083 177 145.083C177 145.083 177 145.083 177 145.083C177 145.083 177 145.083 177 145.083C177 145.083 177 145.083 177 145.083C177 145.083 177 145.083 177 145.083C177 145.083 177 145.083 177 145.083C177 145.083 177 145.083 177 145.083C177 145.083 177 145.083 177 145.083C177 145.083 177 145.083 177 145.083C177 145.083 177 145.083 177 145.083C177 145.083 177 145.083 177 145.083C177 145.083 177 145.083 177 145.083C177 145.083 177 145.083 177 145.083C177 145.083 177 145.083 177 145.083C177 145.083 177 145.083 177 145.083C177 145.083 177 145.083 177 145.083C177 145.083 177 145.083 177 145.083C177 145.083 177 145.083 177 145.083C177 145.083 177 145.083 177 145.083C177 145.083 177 145.083 177 145.083C177 145.083 177 145.083 177 145.083C177 145.083 177 145.083 177 145.083C177 145.083 177 145.083 177 145.083C177 145.083 177 145.083 177 145.083C177 145.083 177 145.083 177 145.083C177 145.083 177 145.083 177 145.083C177 145.083 177 145.083 177 145.083C177 145.083 177 145.083 177 145.083C177 145.083 177 145.083 177 145.083C177 145.083 177 145.083 177 145.083C177 145.083 177 145.083 177 145.083C177 145.083 177 145.083 177 145.083C177 145.083 177 145.083 177 145.083C177 145.083 177 145.083 177 145.083C177 145.083 177 145.083 177 145.083C177 145.083 177 145.083 177 145.083C177 145.083 177 145.083 177 145.083C177 145.083 177 145.083 177 145.083C177 145.083 177 145.083 177 145.083C177 145.083 177 145.083 177 145.083C177 145.083 177 145.083 177 145.083C177 145.083 177 145.083 177 145.083C177 145.083 177 145.083 177 145.083C177 145.083 177 145.083 177 145.083C177 145.083 177 145.083 177 145.083C177 145.083 177 145.083 177 145.083C177 145.083 177 145.083 177 145.083C177 145.083 177 145.083 177 145.083C177 145.083 177 145.083 177 145.083C177 145.083 177 145.083 177 145.083C177 145.083 177 145.083 177 145.083C177 145.083 177 145.083 177 145.083C177 145.083 177 145.083 177 145.083C177 145.083 177 145.083 177 145.083C177 145.083 177 145.083 177 145.083C177 145.083 177 145.083 177 145.083C177 145.083 177 145.083 177 145.083C177 145.083 177 145.083 177 145.083C177 145.083 177 145.083 177 145.083C177 145.083 177 145.083 177 145.083C177 145.083 177 145.083 177 145.083C177 145.083 177 145.083 177 145.083C177 145.083 177 145.083 177 145.083C177 145.083 177 145.083 177 145.083C177 145.083 177 145.083 177 145.083C177 145.083 177 145.083 177 145.083C177 145.083 177 145.083 177 145.083C177 145.083 177 145.083 177 145.083C177 145.083 177 145.083 177 145.083C177 145.083 177 145.083 177 145.083C177 145.083 177 145.083 177 145.083C177 145.083 177 145.083 177 145.083C177 145.083 177 145.083 177 145.083C177 145.083 177 145.083 177 145.083C177 145.083 177 145.083 177 145.083C177 145.083 177 145.083 177 145.083C177 145.083 177 145.083 177 145.083C177 145.083 177 145.083 177 145.083C177 145.083 177 145.083 177 145.083C177 145.083 177 145.083 177 145.083C177 145.083 177 145.083 177 145.083C177 145.083 177 145.083 177 145.083C177 145.083 177 145.083 177 145.083C177 145.083 177 145.083 177 145.083C177 145.083 177 145.083 177 145.083C177 145.083 177 145.083 177 145.083C177 145.083 177 145.083 177 145.083C177 145.083 177 145.083 177 145.083C177 145.083 177 145.083 177 145.083C177 145.083 177 145.083 177 145.083C177 145.083 177 145.083 177 145.083C177 145.083 177 145.083 177 145.083C177 145.083 177 145.083 177 145.083C177 145.083 177 145.083 177 145.083C177 145.083 177 145.083 177 145.083C177 145.083 177 145.083 177 145.083C177 145.083 177 145.083 177 145.083C177 145.083 177 145.083 177 145.083C177 145.083 177 145.083 177 145.083C177 145.083 177 145.083 177 145.083C177 145.083 177 145.083 177 145.083C177 145.083 177 145.083 177 145.083C177 145.083 177 145.083 177 145.083C177 145.083 177 145.083 177 145.083C177 145.083 177 145.083 177 145.083C177 145.083 177 145.083 177 145.083C177 145.083 177 145.083 177 145.083C177 145.083 177 145.083 177 145.083C177 145.083 177 145.083 177 145.083C177 145.083 177 145.083 177 145.083C177 145.083 177 145.083 177 145.083C177 145.083 177 145.083 177 145.083C177 145.083 177 145.083 177 145.083C177 145.083 177 145.083 177 145.083C177 145.083 177 145.083 177 145.083C177 145.083 177 145.083 177 145.083C177 145.083 177 145.083 177 145.083C177 145.083 177 145.083 177 145.083C177 145.083 177 145.083 177 145.083C177 145.083 177 145.083 177 145.083C177 145.083 177 145.083 177 145.083C177 145.083 177 145.083 177 145.083C177 145.083 177 145.083 177 145.083C177 145.083 177 145.083 177 145.083C177 145.083 177 145.083 177 145.083C177 145.083 177 145.083 177 145.083C177 145.083 177 145.083 177 145.083C177 145.083 177 145.083 177 145.083C177 145.083 177 145.083 177 145.083C177 145.083 177 145.083 177 145.083C177 145.083 177 145.083 177 145.083C177 145.083 177 145.083 177 145.083C177 145.083 177 145.083 177 145.083C177 145.083 177 145.083 177 145.083C177 145.083 177 145.083 177 145.083C177 145.083 177 145.083 177 145.083C177 145.083 177 145.083 177 145.083C177 145.083 177 145.083 177 145.083C177 145.083 177 145.083 177 145.083C177 145.083 177 145.083 177 145.083C177 145.083 177 145.083 177 145.083C177 145.083 177 145.083 177 145.083C177 145.083 177 145.083 177 145.083C177 145.083 177 145.083 177 145.083C177 145.083 177 145.083 177 145.083C177 145.083 177 145.083 177 145.083C177 145.083 177 145.083 177 145.083C177 145.083 177 145.083 177 145.083C177 145.083 177 145.083 177 145.083C177 145.083 177 145.083 177 145.083C177 145.083 177 145.083 177 145.083C177 145.083 177 145.083 177 145.083C177 145.083 177 145.083 177 145.083C177 145.083 177 145.083 177 145.083C177 145.083 177 145.083 177 145.083C177 145.083 177 145.083 177 145.083C177 145.083 177 145.083 177 145.083C177 145.083 177 145.083 177 145.083C177 145.083 177 145.083 177 145.083C177 145.083 177 145.083 177 145.083C177 145.083 177 145.083 177 145.083C177 145.083 177 145.083 177 145.083C177 145.083 177 145.083 177 145.083C177 145.083 177 145.083 177 145.083C177 145.083 177 145.083 177 145.083C177 145.083 177 145.083 177 145.083C177 145.083 177 145.083 177 145.083C177 145.083 177 145.083 177 145.083C177 145.083 177 145.083 177 145.083C177 145.083 177 145.083 177 145.083C177 145.083 177 145.083 177 145.083C177 145.083 177 145.083 177 145.083C177 145.083 177 145.083 177 145.083C177 145.083 177 145.083 177 145.083C177 145.083 177 145.083 177 145.083C177 145.083 177 145.083 177 145.083C177 145.083 177 145.083 177 145.083C177 145.083 177 145.083 177 145.083C177 145.083 177 145.083 177 145.083C177 145.083 177 145.083 177 145.083C177 145.083 177 145.083 177 145.083C177 145.083 177 145.083 177 145.083C177 145.083 177 145.083 177 145.083C177 145.083 177 145.083 177 145.083C177 145.083 177 145.083 177 145.083C177 145.083 177 145.083 177 145.083C177 145.083 177 145.083 177 145.083C177 145.083 177 145.083 177 145.083C177 145.083 177 145.083 177 145.083C177 145.083 177 145.083 177 145.083C177 145.083 177 145.083 177 145.083C177 145.083 177 145.083 177 145.083C177 145.083 177 145.083 177 145.083C177 145.083 177 145.083 177 145.083C177 145.083 177 145.083 177 145.083C177 145.083 177 145.083 177 145.083C177 145.083 177 145.083 177 145.083C177 145.083 177 145.083 177 145.083C177 145.083 177 145.083 177 145.083C177 145.083 177 145.083 177 145.083C177 145.083 177 145.083 177 145.083C177 145.083 177 145.083 177 145.083C177 145.083 177 145.083 177 145.083C177 145.083 177 145.083 177 145.083C177 145.083 177 145.083 177 145.083C177 145.083 177 145.083 177 145.083C177 145.083 177 145.083 177 145.083C177 145.083 177 145.083 177 145.083C177 145.083 177 145.083 177 145.083C177 145.083 177 145.083 177 145.083C177 145.083 177 145.083 177 145.083C177 145.083 177 145.083 177 145.083C177 145.083 177 145.083 177 145.083C177 145.083 177 145.083 177 145.083C177 145.083 177 145.083 177 145.083C177 145.083 177 145.083 177 145.083C177 145.083 177 145.083 177 145.083C177 145.083 177 145.083 177 145.083C177 145.083 177 145.083 177 145.083C177 145.083 177 145.083 177 145.083C177 145.083 177 145.083 177 145.083C177 145.083 177 145.083 177 145.083C177 145.083 177 145.083 177 145.083C177 145.083 177 145.083 177 145.083C177 145.083 177 145.083 177 145.083C177 145.083 177 145.083 177 145.083C177 145.083 177 145.083 177 145.083C177 145.083 177 145.083 177 145.083C177 145.083 177 145.083 177 145.083C177 145.083 177 145.083 177 145.083C177 145.083 177 145.083 177 145.083C177 145.083 177 145.083 177 145.083C177 145.083 177 145.083 177 145.083C177 145.083 177 145.083 177 145.083C177 145.083 177 145.083 177 145.083C177 145.083 177 145.083 177 145.083C177 145.083 177 145.083 177 145.083C177 145.083 177 145.083 177 145.083C177 145.083 177 145.083 177 145.083C177 145.083 177 145.083 177 145.083C177 145.083 177 145.083 177 145.083C177 145.083 177 145.083 177 145.083C177 145.083 177 145.083 177 145.083C177 145.083 177 145.083 177 145.083C177 145.083 177 145.083 177 145.083C177 145.083 177 145.083 177 145.083C177 145.083 177 145.083 177 145.083C177 145.083 177 145.083 177 145.083C177 145.083 177 145.083 177 145.083C177 145.083 177 145.083 177 145.083C177 145.083 177 145.083 177 145.083C177 145.083 177 145.083 177 145.083C177 145.083 177 145.083 177 145.083C177 145.083 177 145.083 177 145.083C177 145.083 177 145.083 177 145.083C177 145.083 177 145.083 177 145.083C177 145.083 177 145.083 177 145.083C177 145.083 177 145.083 177 145.083C177 145.083 177 145.083 177 145.083C177 145.083 177 145.083 177 145.083C177 145.083 177 145.083 177 145.083C177 145.083 177 145.083 177 145.083C177 145.083 177 145.083 177 145.083C177 145.083 177 145.083 177 145.083C177 145.083 177 145.083 177 145.083C177 145.083 177 145.083 177 145.083C177 145.083 177 145.083 177 145.083C177 145.083 177 145.083 177 145.083C177 145.083 177 145.083 177 145.083C177 145.083 177 145.083 177 145.083C177 145.083 177 145.083 177 145.083C177 145.083 177 145.083 177 145.083C177 145.083 177 145.083 177 145.083C177 145.083 177 145.083 177 145.083C177 145.083 177 145.083 177 145.083C177 145.083 177 145.083 177 145.083C177 145.083 177 145.083 177 145.083C177 145.083 177 145.083 177 145.083C177 145.083 177 145.083 177 145.083C177 145.083 177 145.083 177 145.083C177 145.083 177 145.083 177 145.083C177 145.083 177 145.083 177 145.083C177 145.083 177 145.083 177 145.083C177 145.083 177 145.083 177 145.083C177 145.083 177 145.083 177 145.083C177 145.083 177 145.083 177 145.083C177 145.083 177 145.083 177 145.083C177 145.083 177 145.083 177 145.083C177 145.083 177 145.083 177 145.083C177 145.083 177 145.083 177 145.083C177 145.083 177 145.083 177 145.083C177 145.083 177 145.083 177 145.083C177 145.083 177 145.083 177 145.083C177 145.083 177 145.083 177 145.083C177 145.083 177 145.083 177 145.083C177 145.083 177 145.083 177 145.083C177 145.083 177 145.083 177 145.083C177 145.083 177 145.083 177 145.083C177 145.083 177 145.083 177 145.083C177 145.083 177 145.083 177 145.083C177 145.083 177 145.083 177 145.083C177 145.083 177 145.083 177 145.083C177 145.083 177 145.083 177 145.083C177 145.083 177 145.083 177 145.083C177 145.083 177 145.083 177 145.083C177 145.083 177 145.083 177 145.083C177 145.083 177 145.083 177 145.083C177 145.083 177 145.083 177 145.083C177 145.083 177 145.083 177 145.083C177 145.083 177 145.083 177 145.083C177 145.083 177 145.083 177 145.083C177 145.083 177 145.083 177 145.083C177 145.083 177 145.083 177 145.083C177 145.083 177 145.083 177 145.083C177 145.083 177 145.083 177 145.083C177 145.083 177 145.083 177 145.083C177 145.083 177 145.083 177 145.083C177 145.083 177 145.083 177 145.083C177 145.083 177 145.083 177 145.083C177 145.083 177 145.083 177 145.083C177 145.083 177 145.083 177 145.083C177 145.083 177 145.083 177 145.083C177 145.083 177 145.083 177 145.083C177 145.083 177 145.083 177 145.083C177 145.083 177 145.083 177 145.083C177 145.083 177 145.083 177 145.083C177 145.083 177 145.083 177 145.083C177 145.083 177 145.083 177 145.083C177 145.083 177 145.083 177 145.083C177 145.083 177 145.083 177 145.083C177 145.083 177 145.083 177 145.083C177 145.083 177 145.083 177 145.083C177 145.083 177 145.083 177 145.083C177 145.083 177 145.083 177 145.083C177 145.083 177 145.083 177 145.083C177 145.083 177 145.083 177 145.083C177 145.083 177 145.083 177 145.083C177 145.083 177 145.083 177 145.083C177 145.083 177 145.083 177 145.083C177 145.083 177 145.083 177 145.083C177 145.083 177 145.083 177 145.083C177 145.083 177 145.083 177 145.083C177 145.083 177 145.083 177 145.083C177 145.083 177 145.083 177 145.083C177 145.083 177 145.083 177 145.083C177 145.083 177 145.083 177 145.083C177 145.083 177 145.083 177 145.083C177 145.083 177 145.083 177 145.083C177 145.083 177 145.083 177 145.083C177 145.083 177 145.083 177 145.083C177 145.083 177 145.083 177 145.083C177 145.083 177 145.083 177 145.083C177 145.083 177 145.083 177 145.083C177 145.083 177 145.083 177 145.083C177 145.083 177 145.083 177 145.083C177 145.083 177 145.083 177 145.083C177 145.083 177 145.083 177 145.083C177 145.083 177 145.083 177 145.083C177 145.083 177 145.083 177 145.083C177 145.083 177 145.083 177 145.083C177 145.083 177 145.083 177 145.083C177 145.083 177 145.083 177 145.083C177 145.083 177 145.083 177 145.083C177 145.083 177 145.083 177 145.083C177 145.083 177 145.083 177 145.083C177 145.083 177 145.083 177 145.083C177 145.083 177 145.083 177 145.083C177 145.083 177 145.083 177 145.083C177 145.083 177 145.083 177 145.083C177 145.083 177 145.083 177 145.083C177 145.083 177 145.083 177 145.083C177 145.083 177 145.083 177 145.083C177 145.083 177 145.083 177 145.083C177 145.083 177 145.083 177 145.083C177 145.083 177 145.083 177 145.083C177 145.083 177 145.083 177 145.083C177 145.083 177 145.083 177 145.083C177 145.083 177 145.083 177 145.083C177 145.083 177 145.083 177 145.083C177 145.083 177 145.083 177 145.083C177 145.083 177 145.083 177 145.083C177 145.083 177 145.083 177 145.083C177 145.083 177 145.083 177 145.083C177 145.083 177 145.083 177 145.083C177 145.083 177 145.083 177 145.083C177 145.083 177 145.083 177 145.083C177 145.083 177 145.083 177 145.083C177 145.083 177 145.083 177 145.083C177 145.083 177 145.083 177 145.083C177 145.083 177 145.083 177 145.083C177 145.083 177 145.083 177 145.083C177 145.083 177 145.083 177 145.083C177 145.083 177 145.083 177 145.083C177 145.083 177 145.083 177 145.083C177 145.083 177 145.083 177 145.083C177 145.083 177 145.083 177 145.083C177 145.083 177 145.083 177 145.083C177 145.083 177 145.083 177 145.083C177 145.083 177 145.083 177 145.083C177 145.083 177 145.083 177 145.083C177 145.083 177 145.083 177 145.083C177 145.083 177 145.083 177 145.083C177 145.083 177 145.083 177 145.083C177 145.083 177 145.083 177 145.083C177 145.083 177 145.083 177 145.083C177 145.083 177 145.083 177 145.083C177 145.083 177 145.083 177 145.083C177 145.083 177 145.083 177 145.083C177 145.083 177 145.083 177 145.083C177 145.083 177 145.083 177 145.083C177 145.083 177 145.083 177 145.083C177 145.083 177 145.083 177 145.083C177 145.083 177 145.083 177 145.083C177 145.083 177 145.083 177 145.083C177 145.083 177 145.083 177 145.083C177 145.083 177 145.083 177 145.083C177 145.083 177 145.083 177 145.083C177 145.083 177 145.083 177 145.083C177 145.083 177 145.083 177 145.083C177 145.083 177 145.083 177 145.083C177 145.083 177 145.083 177 145.083C177 145.083 177 145.083 177 145.083C177 145.083 177 145.083 177 145.083C177 145.083 177 145.083 177 145.083C177 145.083 177 145.083 177 145.083C177 145.083 177 145.083 177 145.083C177 145.083 177 145.083 177 145.083C177 145.083 177 145.083 177 145.083C177 145.083 177 145.083 177 145.083C177 145.083 177 145.083 177 145.083C177 145.083 177 145.083 177 145.083C177 145.083 177 145.083 177 145.083C177 145.083 177 145.083 177 145.083C177 145.083 177 145.083 177 145.083C177 145.083 177 145.083 177 145.083C177 145.083 177 145.083 177 145.083C177 145.083 177 145.083 177 145.083C177 145.083 177 145.083 177 145.083C177 145.083 177 145.083 177 145.083C177 145.083 177 145.083 177 145.083C177 145.083 177 145.083 177 145.083C177 145.083 177 145.083 177 145.083C177 145.083 177 145.083 177 145.083C177 145.083 177 145.083 177 145.083C177 145.083 177 145.083 177 145.083C177 145.083 177 145.083 177 145.083C177 145.083 177 145.083 177 145.083C177 145.083 177 145.083 177 145.083C177 145.083 177 145.083 177 145.083C177 145.083 177 145.083 177 145.083C177 145.083 177 145.083 177 145.083C177 145.083 177 145.083 177 145.083C177 145.083 177 145.083 177 145.083C177 145.083 177 145.083 177 145.083C177 145.083 177 145.083 177 145.083C177 145.083 177 145.083 177 145.083C177 145.083 177 145.083 177 145.083C177 145.083 177 145.083 177 145.083C177 145.083 177 145.083 177 145.083C177 145.083 177 145.083 177 145.083C177 145.083 177 145.083 177 145.083C177 145.083 177 145.083 177 145.083C177 145.083 177 145.083 177 145.083C177 145.083 177 145.083 177 145.083C177 145.083 177 145.083 177 145.083C177 145.083 177 145.083 177 145.083C177 145.083 177 145.083 177 145.083C177 145.083 177 145.083 177 145.083V169.083C177 169.083 177 169.083 177 169.083C177 169.083 177 169.083 177 169.083C177 169.083 177 169.083 177 169.083C177 169.083 177 169.083 177 169.083C177 169.083 177 169.083 177 169.083C177 169.083 177 169.083 177 169.083C177 169.083 177 169.083 177 169.083C177 169.083 177 169.083 177 169.083C177 169.083 177 169.083 177 169.083C177 169.083 177 169.083 177 169.083C177 169.083 177 169.083 177 169.083C177 169.083 177 169.083 177 169.083C177 169.083 177 169.083 177 169.083C177 169.083 177 169.083 177 169.083C177 169.083 177 169.083 177 169.083C177 169.083 177 169.083 177 169.083C177 169.083 177 169.083 177 169.083C177 169.083 177 169.083 177 169.083C177 169.083 177 169.083 177 169.083C177 169.083 177 169.083 177 169.083C177 169.083 177 169.083 177 169.083C177 169.083 177 169.083 177 169.083C177 169.083 177 169.083 177 169.083C177 169.083 177 169.083 177 169.083C177 169.083 177 169.083 177 169.083C177 169.083 177 169.083 177 169.083C177 169.083 177 169.083 177 169.083C177 169.083 177 169.083 177 169.083C177 169.083 177 169.083 177 169.083C177 169.083 177 169.083 177 169.083C177 169.083 177 169.083 177 169.083C177 169.083 177 169.083 177 169.083C177 169.083 177 169.083 177 169.083C177 169.083 177 169.083 177 169.083C177 169.083 177 169.083 177 169.083C177 169.083 177 169.083 177 169.083C177 169.083 177 169.083 177 169.083C177 169.083 177 169.083 177 169.083C177 169.083 177 169.083 177 169.083C177 169.083 177 169.083 177 169.083C177 169.083 177 169.083 177 169.083C177 169.083 177 169.083 177 169.083C177 169.083 177 169.083 177 169.083C177 169.083 177 169.083 177 169.083C177 169.083 177 169.083 177 169.083C177 169.083 177 169.083 177 169.083C177 169.083 177 169.083 177 169.083C177 169.083 177 169.083 177 169.083C177 169.083 177 169.083 177 169.083C177 169.083 177 169.083 177 169.083C177 169.083 177 169.083 177 169.083C177 169.083 177 169.083 177 169.083C177 169.083 177 169.083 177 169.083C177 169.083 177 169.083 177 169.083C177 169.083 177 169.083 177 169.083C177 169.083 177 169.083 177 169.083C177 169.083 177 169.083 177 169.083C177 169.083 177 169.083 177 169.083C177 169.083 177 169.083 177 169.083C177 169.083 177 169.083 177 169.083C177 169.083 177 169.083 177 169.083C177 169.083 177 169.083 177 169.083C177 169.083 177 169.083 177 169.083C177 169.083 177 169.083 177 169.083C177 169.083 177 169.083 177 169.083C177 169.083 177 169.083 177 169.083C177 169.083 177 169.083 177 169.083C177 169.083 177 169.083 177 169.083C177 169.083 177 169.083 177 169.083C177 169.083 177 169.083 177 169.083C177 169.083 177 169.083 177 169.083C177 169.083 177 169.083 177 169.083C177 169.083 177 169.083 177 169.083C177 169.083 177 169.083 177 169.083C177 169.083 177 169.083 177 169.083C177 169.083 177 169.083 177 169.083C177 169.083 177 169.083 177 169.083C177 169.083 177 169.083 177 169.083C177 169.083 177 169.083 177 169.083C177 169.083 177 169.083 177 169.083C177 169.083 177 169.083 177 169.083C177 169.083 177 169.083 177 169.083C177 169.083 177 169.083 177 169.083C177 169.083 177 169.083 177 169.083C177 169.083 177 169.083 177 169.083C177 169.083 177 169.083 177 169.083C177 169.083 177 169.083 177 169.083C177 169.083 177 169.083 177 169.083C177 169.083 177 169.083 177 169.083C177 169.083 177 169.083 177 169.083C177 169.083 177 169.083 177 169.083C177 169.083 177 169.083 177 169.083C177 169.083 177 169.083 177 169.083C177 169.083 177 169.083 177 169.083C177 169.083 177 169.083 177 169.083C177 169.083 177 169.083 177 169.083C177 169.083 177 169.083 177 169.083C177 169.083 177 169.083 177 169.083C177 169.083 177 169.083 177 169.083C177 169.083 177 169.083 177 169.083C177 169.083 177 169.083 177 169.083C177 169.083 177 169.083 177 169.083C177 169.083 177 169.083 177 169.083C177 169.083 177 169.083 177 169.083C177 169.083 177 169.083 177 169.083C177 169.083 177 169.083 177 169.083C177 169.083 177 169.083 177 169.083C177 169.083 177 169.083 177 169.083C177 169.083 177 169.083 177 169.083C177 169.083 177 169.083 177 169.083C177 169.083 177 169.083 177 169.083C177 169.083 177 169.083 177 169.083C177 169.083 177 169.083 177 169.083C177 169.083 177 169.083 177 169.083C177 169.083 177 169.083 177 169.083C177 169.083 177 169.083 177 169.083C177 169.083 177 169.083 177 169.083C177 169.083 177 169.083 177 169.083C177 169.083 177 169.083 177 169.083C177 169.083 177 169.083 177 169.083C177 169.083 177 169.083 177 169.083C177 169.083 177 169.083 177 169.083C177 169.083 177 169.083 177 169.083C177 169.083 177 169.083 177 169.083C177 169.083 177 169.083 177 169.083C177 169.083 177 169.083 177 169.083C177 169.083 177 169.083 177 169.083C177 169.083 177 169.083 177 169.083C177 169.083 177 169.083 177 169.083C177 169.083 177 169.083 177 169.083C177 169.083 177 169.083 177 169.083C177 169.083 177 169.083 177 169.083C177 169.083 177 169.083 177 169.083C177 169.083 177 169.083 177 169.083C177 169.083 177 169.083 177 169.083C177 169.083 177 169.083 177 169.083C177 169.083 177 169.083 177 169.083C177 169.083 177 169.083 177 169.083C177 169.083 177 169.083 177 169.083C177 169.083 177 169.083 177 169.083C177 169.083 177 169.083 177 169.083C177 169.083 177 169.083 177 169.083C177 169.083 177 169.083 177 169.083C177 169.083 177 169.083 177 169.083C177 169.083 177 169.083 177 169.083C177 169.083 177 169.083 177 169.083C177 169.083 177 169.083 177 169.083C177 169.083 177 169.083 177 169.083C177 169.083 177 169.083 177 169.083C177 169.083 177 169.083 177 169.083C177 169.083 177 169.083 177 169.083C177 169.083 177 169.083 177 169.083C177 169.083 177 169.083 177 169.083C177 169.083 177 169.083 177 169.083C177 169.083 177 169.083 177 169.083C177 169.083 177 169.083 177 169.083C177 169.083 177 169.083 177 169.083C177 169.083 177 169.083 177 169.083C177 169.083 177 169.083 177 169.083C177 169.083 177 169.083 177 169.083C177 169.083 177 169.083 177 169.083C177 169.083 177 169.083 177 169.083C177 169.083 177 169.083 177 169.083C177 169.083 177 169.083 177 169.083C177 169.083 177 169.083 177 169.083C177 169.083 177 169.083 177 169.083C177 169.083 177 169.083 177 169.083C177 169.083 177 169.083 177 169.083C177 169.083 177 169.083 177 169.083C177 169.083 177 169.083 177 169.083C177 169.083 177 169.083 177 169.083C177 169.083 177 169.083 177 169.083C177 169.083 177 169.083 177 169.083C177 169.083 177 169.083 177 169.083C177 169.083 177 169.083 177 169.083C177 169.083 177 169.083 177 169.083C177 169.083 177 169.083 177 169.083C177 169.083 177 169.083 177 169.083C177 169.083 177 169.083 177 169.083C177 169.083 177 169.083 177 169.083C177 169.083 177 169.083 177 169.083C177 169.083 177 169.083 177 169.083C177 169.083 177 169.083 177 169.083C177 169.083 177 169.083 177 169.083C177 169.083 177 169.083 177 169.083C177 169.083 177 169.083 177 169.083C177 169.083 177 169.083 177 169.083C177 169.083 177 169.083 177 169.083C177 169.083 177 169.083 177 169.083C177 169.083 177 169.083 177 169.083C177 169.083 177 169.083 177 169.083C177 169.083 177 169.083 177 169.083C177 169.083 177 169.083 177 169.083C177 169.083 177 169.083 177 169.083C177 169.083 177 169.083 177 169.083C177 169.083 177 169.083 177 169.083C177 169.083 177 169.083 177 169.083C177 169.083 177 169.083 177 169.083C177 169.083 177 169.083 177 169.083C177 169.083 177 169.083 177 169.083C177 169.083 177 169.083 177 169.083C177 169.083 177 169.083 177 169.083C177 169.083 177 169.083 177 169.083C177 169.083 177 169.083 177 169.083C177 169.083 177 169.083 177 169.083C177 169.083 177 169.083 177 169.083C177 169.083 177 169.083 177 169.083C177 169.083 177 169.083 177 169.083C177 169.083 177 169.083 177 169.083C177 169.083 177 169.083 177 169.083C177 169.083 177 169.083 177 169.083C177 169.083 177 169.083 177 169.083C177 169.083 177 169.083 177 169.083C177 169.083 177 169.083 177 169.083C177 169.083 177 169.083 177 169.083C177 169.083 177 169.083 177 169.083C177 169.083 177 169.083 177 169.083C177 169.083 177 169.083 177 169.083C177 169.083 177 169.083 177 169.083C177 169.083 177 169.083 177 169.083C177 169.083 177 169.083 177 169.083C177 169.083 177 169.083 177 169.083C177 169.083 177 169.083 177 169.083C177 169.083 177 169.083 177 169.083C177 169.083 177 169.083 177 169.083C177 169.083 177 169.083 177 169.083C177 169.083 177 169.083 177 169.083C177 169.083 177 169.083 177 169.083C177 169.083 177 169.083 177 169.083C177 169.083 177 169.083 177 169.083C177 169.083 177 169.083 177 169.083C177 169.083 177 169.083 177 169.083C177 169.083 177 169.083 177 169.083C177 169.083 177 169.083 177 169.083C177 169.083 177 169.083 177 169.083C177 169.083 177 169.083 177 169.083C177 169.083 177 169.083 177 169.083C177 169.083 177 169.083 177 169.083C177 169.083 177 169.083 177 169.083C177 169.083 177 169.083 177 169.083C177 169.083 177 169.083 177 169.083C177 169.083 177 169.083 177 169.083C177 169.083 177 169.083 177 169.083C177 169.083 177 169.083 177 169.083C177 169.083 177 169.083 177 169.083C177 169.083 177 169.083 177 169.083C177 169.083 177 169.083 177 169.083C177 169.083 177 169.083 177 169.083C177 169.083 177 169.083 177 169.083C177 169.083 177 169.083 177 169.083C177 169.083 177 169.083 177 169.083C177 169.083 177 169.083 177 169.083C177 169.083 177 169.083 177 169.083C177 169.083 177 169.083 177 169.083C177 169.083 177 169.083 177 169.083C177 169.083 177 169.083 177 169.083C177 169.083 177 169.083 177 169.083C177 169.083 177 169.083 177 169.083C177 169.083 177 169.083 177 169.083C177 169.083 177 169.083 177 169.083C177 169.083 177 169.083 177 169.083C177 169.083 177 169.083 177 169.083C177 169.083 177 169.083 177 169.083C177 169.083 177 169.083 177 169.083C177 169.083 177 169.083 177 169.083C177 169.083 177 169.083 177 169.083C177 169.083 177 169.083 177 169.083C177 169.083 177 169.083 177 169.083C177 169.083 177 169.083 177 169.083C177 169.083 177 169.083 177 169.083C177 169.083 177 169.083 177 169.083C177 169.083 177 169.083 177 169.083C177 169.083 177 169.083 177 169.083C177 169.083 177 169.083 177 169.083C177 169.083 177 169.083 177 169.083C177 169.083 177 169.083 177 169.083C177 169.083 177 169.083 177 169.083C177 169.083 177 169.083 177 169.083C177 169.083 177 169.083 177 169.083C177 169.083 177 169.083 177 169.083C177 169.083 177 169.083 177 169.083C177 169.083 177 169.083 177 169.083C177 169.083 177 169.083 177 169.083C177 169.083 177 169.083 177 169.083C177 169.083 177 169.083 177 169.083C177 169.083 177 169.083 177 169.083C177 169.083 177 169.083 177 169.083C177 169.083 177 169.083 177 169.083C177 169.083 177 169.083 177 169.083C177 169.083 177 169.083 177 169.083C177 169.083 177 169.083 177 169.083C177 169.083 177 169.083 177 169.083C177 169.083 177 169.083 177 169.083C177 169.083 177 169.083 177 169.083C177 169.083 177 169.083 177 169.083C177 169.083 177 169.083 177 169.083C177 169.083 177 169.083 177 169.083C177 169.083 177 169.083 177 169.083C177 169.083 177 169.083 177 169.083C177 169.083 177 169.083 177 169.083C177 169.083 177 169.083 177 169.083C177 169.083 177 169.083 177 169.083C177 169.083 177 169.083 177 169.083C177 169.083 177 169.083 177 169.083C177 169.083 177 169.083 177 169.083C177 169.083 177 169.083 177 169.083C177 169.083 177 169.083 177 169.083C177 169.083 177 169.083 177 169.083C177 169.083 177 169.083 177 169.083C177 169.083 177 169.083 177 169.083C177 169.083 177 169.083 177 169.083C177 169.083 177 169.083 177 169.083C177 169.083 177 169.083 177 169.083C177 169.083 177 169.083 177 169.083C177 169.083 177 169.083 177 169.083C177 169.083 177 169.083 177 169.083C177 169.083 177 169.083 177 169.083C177 169.083 177 169.083 177 169.083C177 169.083 177 169.083 177 169.083C177 169.083 177 169.083 177 169.083C177 169.083 177 169.083 177 169.083C177 169.083 177 169.083 177 169.083C177 169.083 177 169.083 177 169.083C177 169.083 177 169.083 177 169.083C177 169.083 177 169.083 177 169.083C177 169.083 177 169.083 177 169.083C177 169.083 177 169.083 177 169.083C177 169.083 177 169.083 177 169.083C177 169.083 177 169.083 177 169.083C177 169.083 177 169.083 177 169.083C177 169.083 177 169.083 177 169.083C177 169.083 177 169.083 177 169.083C177 169.083 177 169.083 177 169.083C177 169.083 177 169.083 177 169.083C177 169.083 177 169.083 177 169.083C177 169.083 177 169.083 177 169.083C177 169.083 177 169.083 177 169.083C177 169.083 177 169.083 177 169.083C177 169.083 177 169.083 177 169.083C177 169.083 177 169.083 177 169.083C177 169.083 177 169.083 177 169.083C177 169.083 177 169.083 177 169.083C177 169.083 177 169.083 177 169.083C177 169.083 177 169.083 177 169.083C177 169.083 177 169.083 177 169.083C177 169.083 177 169.083 177 169.083C177 169.083 177 169.083 177 169.083C177 169.083 177 169.083 177 169.083C177 169.083 177 169.083 177 169.083C177 169.083 177 169.083 177 169.083C177 169.083 177 169.083 177 169.083C177 169.083 177 169.083 177 169.083C177 169.083 177 169.083 177 169.083C177 169.083 177 169.083 177 169.083C177 169.083 177 169.083 177 169.083C177 169.083 177 169.083 177 169.083C177 169.083 177 169.083 177 169.083C177 169.083 177 169.083 177 169.083C177 169.083 177 169.083 177 169.083C177 169.083 177 169.083 177 169.083C177 169.083 177 169.083 177 169.083C177 169.083 177 169.083 177 169.083C177 169.083 177 169.083 177 169.083C177 169.083 177 169.083 177 169.083C177 169.083 177 169.083 177 169.083C177 169.083 177 169.083 177 169.083C177 169.083 177 169.083 177 169.083C177 169.083 177 169.083 177 169.083C177 169.083 177 169.083 177 169.083C177 169.083 177 169.083 177 169.083C177 169.083 177 169.083 177 169.083C177 169.083 177 169.083 177 169.083C177 169.083 177 169.083 177 169.083C177 169.083 177 169.083 177 169.083C177 169.083 177 169.083 177 169.083C177 169.083 177 169.083 177 169.083C177 169.083 177 169.083 177 169.083C177 169.083 177 169.083 177 169.083C177 169.083 177 169.083 177 169.083C177 169.083 177 169.083 177 169.083C177 169.083 177 169.083 177 169.083C177 169.083 177 169.083 177 169.083C177 169.083 177 169.083 177 169.083C177 169.083 177 169.083 177 169.083C177 169.083 177 169.083 177 169.083C177 169.083 177 169.083 177 169.083C177 169.083 177 169.083 177 169.083C177 169.083 177 169.083 177 169.083C177 169.083 177 169.083 177 169.083C177 169.083 177 169.083 177 169.083C177 169.083 177 169.083 177 169.083C177 169.083 177 169.083 177 169.083C177 169.083 177 169.083 177 169.083C177 169.083 177 169.083 177 169.083C177 169.083 177 169.083 177 169.083C177 169.083 177 169.083 177 169.083C177 169.083 177 169.083 177 169.083C177 169.083 177 169.083 177 169.083C177 169.083 177 169.083 177 169.083C177 169.083 177 169.083 177 169.083C177 169.083 177 169.083 177 169.083C177 169.083 177 169.083 177 169.083C177 169.083 177 169.083 177 169.083C177 169.083 177 169.083 177 169.083C177 169.083 177 169.083 177 169.083C177 169.083 177 169.083 177 169.083C177 169.083 177 169.083 177 169.083C177 169.083 177 169.083 177 169.083C177 169.083 177 169.083 177 169.083C177 169.083 177 169.083 177 169.083C177 169.083 177 169.083 177 169.083C177 169.083 177 169.083 177 169.083C177 169.083 177 169.083 177 169.083C177 169.083 177 169.083 177 169.083C177 169.083 177 169.083 177 169.083C177 169.083 177 169.083 177 169.083C177 169.083 177 169.083 177 169.083C177 169.083 177 169.083 177 169.083C177 169.083 177 169.083 177 169.083C177 169.083 177 169.083 177 169.083C177 169.083 177 169.083 177 169.083C177 169.083 177 169.083 177 169.083C177 169.083 177 169.083 177 169.083C177 169.083 177 169.083 177 169.083C177 169.083 177 169.083 177 169.083C177 169.083 177 169.083 177 169.083C177 169.083 177 169.083 177 169.083C177 169.083 177 169.083 177 169.083C177 169.083 177 169.083 177 169.083C177 169.083 177 169.083 177 169.083C177 169.083 177 169.083 177 169.083C177 169.083 177 169.083 177 169.083C177 169.083 177 169.083 177 169.083C177 169.083 177 169.083 177 169.083C177 169.083 177 169.083 177 169.083C177 169.083 177 169.083 177 169.083C177 169.083 177 169.083 177 169.083C177 169.083 177 169.083 177 169.083C177 169.083 177 169.083 177 169.083C177 169.083 177 169.083 177 169.083C177 169.083 177 169.083 177 169.083C177 169.083 177 169.083 177 169.083C177 169.083 177 169.083 177 169.083C177 169.083 177 169.083 177 169.083C177 169.083 177 169.083 177 169.083C177 169.083 177 169.083 177 169.083C177 169.083 177 169.083 177 169.083C177 169.083 177 169.083 177 169.083C177 169.083 177 169.083 177 169.083C177 169.083 177 169.083 177 169.083C177 169.083 177 169.083 177 169.083C177 169.083 177 169.083 177 169.083C177 169.083 177 169.083 177 169.083C177 169.083 177 169.083 177 169.083C177 169.083 177 169.083 177 169.083C177 169.083 177 169.083 177 169.083C177 169.083 177 169.083 177 169.083C177 169.083 177 169.083 177 169.083C177 169.083 177 169.083 177 169.083C177 169.083 177 169.083 177 169.083C177 169.083 177 169.083 177 169.083C177 169.083 177 169.083 177 169.083C177 169.083 177 169.083 177 169.083C177 169.083 177 169.083 177 169.083C177 169.083 177 169.083 177 169.083C177 169.083 177 169.083 177 169.083C177 169.083 177 169.083 177 169.083C177 169.083 177 169.083 177 169.083C177 169.083 177 169.083 177 169.083C177 169.083 177 169.083 177 169.083C177 169.083 177 169.083 177 169.083C177 169.083 177 169.083 177 169.083C177 169.083 177 169.083 177 169.083C177 169.083 177 169.083 177 169.083C177 169.083 177 169.083 177 169.083C177 169.083 177 169.083 177 169.083C177 169.083 177 169.083 177 169.083C177 169.083 177 169.083 177 169.083C177 169.083 177 169.083 177 169.083C177 169.083 177 169.083 177 169.083C177 169.083 177 169.083 177 169.083C177 169.083 177 169.083 177 169.083C177 169.083 177 169.083 177 169.083C177 169.083 177 169.083 177 169.083C177 169.083 177 169.083 177 169.083C177 169.083 177 169.083 177 169.083C177 169.083 177 169.083 177 169.083C177 169.083 177 169.083 177 169.083C177 169.083 177 169.083 177 169.083C177 169.083 177 169.083 177 169.083C177 169.083 177 169.083 177 169.083C177 169.083 177 169.083 177 169.083C177 169.083 177 169.083 177 169.083C177 169.083 177 169.083 177 169.083C177 169.083 177 169.083 177 169.083C177 169.083 177 169.083 177 169.083C177 169.083 177 169.083 177 169.083C177 169.083 177 169.083 177 169.083C177 169.083 177 169.083 177 169.083C177 169.083 177 169.083 177 169.083C177 169.083 177 169.083 177 169.083C177 169.083 177 169.083 177 169.083C177 169.083 177 169.083 177 169.083C177 169.083 177 169.083 177 169.083C177 169.083 177 169.083 177 169.083C177 169.083 177 169.083 177 169.083C177 169.083 177 169.083 177 169.083C177 169.083 177 169.083 177 169.083C177 169.083 177 169.083 177 169.083C177 169.083 177 169.083 177 169.083C177 169.083 177 169.083 177 169.083C177 169.083 177 169.083 177 169.083V145.083ZM165 62V157.083H189V62H165ZM379.167 252.167C379.167 140.513 288.654 50 177 50V74C275.399 74 355.167 153.768 355.167 252.167H379.167Z"
        fill="black" mask="url(#path-5-inside-1_5_114)" />
</svg>